<mxfile host="app.diagrams.net" modified="2023-04-24T22:38:55.206Z" agent="Mozilla/5.0 (Windows NT 10.0; Win64; x64) AppleWebKit/537.36 (KHTML, like Gecko) Chrome/112.0.0.0 Safari/537.36" etag="IWprgbu7TtKISD7GMiay" version="21.2.1" type="device">
  <diagram name="Página-1" id="CMoFaD9ymIJNCcKmEH0v">
    <mxGraphModel dx="4908" dy="1945" grid="1" gridSize="10" guides="1" tooltips="1" connect="1" arrows="1" fold="1" page="1" pageScale="1" pageWidth="827" pageHeight="1169" math="0" shadow="0">
      <root>
        <mxCell id="0" />
        <mxCell id="1" parent="0" />
        <mxCell id="n_CAfEEjPnqXCp9ccczC-264" value="" style="rounded=0;whiteSpace=wrap;html=1;strokeColor=#000000;fontSize=17;fillColor=none;movable=0;resizable=0;rotatable=0;deletable=0;editable=0;locked=1;connectable=0;" parent="1" vertex="1">
          <mxGeometry x="-2680" y="-1020" width="4853" height="3670" as="geometry" />
        </mxCell>
        <mxCell id="mm4QMuO7m49nY0iOttvm-2" style="edgeStyle=orthogonalEdgeStyle;rounded=0;orthogonalLoop=1;jettySize=auto;html=1;" edge="1" parent="1" source="n_CAfEEjPnqXCp9ccczC-1" target="mm4QMuO7m49nY0iOttvm-1">
          <mxGeometry relative="1" as="geometry">
            <Array as="points">
              <mxPoint x="265" y="-820" />
              <mxPoint x="265" y="-820" />
            </Array>
          </mxGeometry>
        </mxCell>
        <mxCell id="n_CAfEEjPnqXCp9ccczC-1" value="&lt;div style=&quot;display: flex; justify-content: center; text-align: center; align-items: baseline; line-height: 1.25; margin-top: -2px; font-size: 17px;&quot;&gt;&lt;span style=&quot;color: rgb(51, 51, 51);&quot;&gt;&lt;font style=&quot;font-size: 17px;&quot;&gt;PortuGOD - Desafio Final&lt;br&gt;&lt;/font&gt;&lt;/span&gt;&lt;/div&gt;&lt;div style=&quot;display: flex; justify-content: flex-start; text-align: left; align-items: baseline; line-height: 1.25; margin-top: -2px; font-size: 17px;&quot;&gt;&lt;span&gt;&lt;span style=&quot;color: rgb(51, 51, 51);&quot;&gt;&lt;font style=&quot;font-size: 17px;&quot;&gt;&quot;Este programa tem por finalidade controlar o recebimento e os estoques de rações doadas para animais.&quot;&lt;br&gt;&lt;/font&gt;&lt;/span&gt;&lt;/span&gt;&lt;/div&gt;&lt;div style=&quot;display: flex; justify-content: flex-start; text-align: left; align-items: baseline; line-height: 1.25; margin-top: -2px; font-size: 17px;&quot;&gt;&lt;span&gt;&lt;span style=&quot;color: rgb(51, 51, 51);&quot;&gt;&lt;font style=&quot;font-size: 17px;&quot;&gt;&quot;1 - Cadastrar Nova Doação;&lt;br&gt;&lt;/font&gt;&lt;/span&gt;&lt;/span&gt;&lt;/div&gt;&lt;div style=&quot;display: flex; justify-content: flex-start; text-align: left; align-items: baseline; line-height: 1.25; margin-top: -2px; font-size: 17px;&quot;&gt;&lt;span&gt;&lt;span style=&quot;color: rgb(51, 51, 51);&quot;&gt;&lt;font style=&quot;font-size: 17px;&quot;&gt;2 - Verificar Estoques;&lt;br&gt;&lt;/font&gt;&lt;/span&gt;&lt;/span&gt;&lt;/div&gt;&lt;div style=&quot;display: flex; justify-content: flex-start; text-align: left; align-items: baseline; line-height: 1.25; margin-top: -2px; font-size: 17px;&quot;&gt;&lt;span style=&quot;color: rgb(51, 51, 51);&quot;&gt;&lt;font style=&quot;font-size: 17px;&quot;&gt;Digite o número da opção desejada: &quot;&lt;/font&gt;&lt;/span&gt;&lt;/div&gt;" style="html=1;overflow=block;blockSpacing=1;whiteSpace=wrap;fontSize=13;spacing=3.8;verticalAlign=middle;strokeColor=#5e5e5e;strokeOpacity=100;rounded=1;absoluteArcSize=1;arcSize=9;strokeWidth=2.3;lucidId=CtcQ1udQITby;" parent="1" vertex="1">
          <mxGeometry y="-1000" width="571" height="157" as="geometry" />
        </mxCell>
        <mxCell id="n_CAfEEjPnqXCp9ccczC-2" value="&lt;div style=&quot;display: flex; justify-content: center; text-align: center; align-items: baseline; line-height: 1.25; margin-top: -2px; font-size: 17px;&quot;&gt;&lt;span style=&quot;color: rgb(51, 51, 51);&quot;&gt;&lt;font style=&quot;font-size: 17px;&quot;&gt;&quot;CADASTRAR NOVA DOAÇÃO&quot;&lt;br&gt;&lt;/font&gt;&lt;/span&gt;&lt;/div&gt;&lt;div style=&quot;display: flex; justify-content: flex-start; text-align: left; align-items: baseline; line-height: 1.25; margin-top: -2px; font-size: 17px;&quot;&gt;&lt;span&gt;&lt;span style=&quot;color: rgb(51, 51, 51);&quot;&gt;&lt;font style=&quot;font-size: 17px;&quot;&gt;&quot;1 - Ração para cães;&lt;br&gt;&lt;/font&gt;&lt;/span&gt;&lt;/span&gt;&lt;/div&gt;&lt;div style=&quot;display: flex; justify-content: flex-start; text-align: left; align-items: baseline; line-height: 1.25; margin-top: -2px; font-size: 17px;&quot;&gt;&lt;span&gt;&lt;span style=&quot;color: rgb(51, 51, 51);&quot;&gt;&lt;font style=&quot;font-size: 17px;&quot;&gt;2 - Ração para gatos;&lt;br&gt;&lt;/font&gt;&lt;/span&gt;&lt;/span&gt;&lt;/div&gt;&lt;div style=&quot;display: flex; justify-content: flex-start; text-align: left; align-items: baseline; line-height: 1.25; margin-top: -2px; font-size: 17px;&quot;&gt;&lt;span style=&quot;color: rgb(51, 51, 51);&quot;&gt;&lt;font style=&quot;font-size: 17px;&quot;&gt;Digite o número da opção desejada: &quot;&lt;/font&gt;&lt;/span&gt;&lt;/div&gt;" style="html=1;overflow=block;blockSpacing=1;whiteSpace=wrap;fontSize=13;spacing=3.8;verticalAlign=middle;strokeColor=#5e5e5e;strokeOpacity=100;rounded=1;absoluteArcSize=1;arcSize=9;strokeWidth=2.3;lucidId=AwcQL10IRMYt;" parent="1" vertex="1">
          <mxGeometry x="-720" y="-572" width="389" height="162" as="geometry" />
        </mxCell>
        <mxCell id="n_CAfEEjPnqXCp9ccczC-72" style="edgeStyle=orthogonalEdgeStyle;rounded=0;orthogonalLoop=1;jettySize=auto;html=1;" parent="1" source="n_CAfEEjPnqXCp9ccczC-3" target="n_CAfEEjPnqXCp9ccczC-5" edge="1">
          <mxGeometry relative="1" as="geometry" />
        </mxCell>
        <mxCell id="n_CAfEEjPnqXCp9ccczC-73" style="edgeStyle=orthogonalEdgeStyle;rounded=0;orthogonalLoop=1;jettySize=auto;html=1;" parent="1" source="n_CAfEEjPnqXCp9ccczC-3" target="n_CAfEEjPnqXCp9ccczC-6" edge="1">
          <mxGeometry relative="1" as="geometry" />
        </mxCell>
        <mxCell id="n_CAfEEjPnqXCp9ccczC-91" style="edgeStyle=orthogonalEdgeStyle;rounded=0;orthogonalLoop=1;jettySize=auto;html=1;exitX=0.75;exitY=1;exitDx=0;exitDy=0;fontSize=17;" parent="1" source="n_CAfEEjPnqXCp9ccczC-3" target="n_CAfEEjPnqXCp9ccczC-85" edge="1">
          <mxGeometry relative="1" as="geometry">
            <Array as="points">
              <mxPoint x="-640" y="-150" />
              <mxPoint x="-640" y="-150" />
            </Array>
          </mxGeometry>
        </mxCell>
        <mxCell id="n_CAfEEjPnqXCp9ccczC-3" value="&lt;div style=&quot;display: flex; justify-content: center; text-align: center; align-items: baseline; line-height: 1.25; margin-top: -2px; font-size: 17px;&quot;&gt;&lt;span style=&quot;color: rgb(51, 51, 51);&quot;&gt;&lt;font style=&quot;font-size: 17px;&quot;&gt;&quot;1- RAÇÃO PARA CÃES&quot;&lt;br&gt;&lt;/font&gt;&lt;/span&gt;&lt;/div&gt;&lt;div style=&quot;display: flex; justify-content: flex-start; text-align: left; align-items: baseline; line-height: 1.25; margin-top: -2px; font-size: 17px;&quot;&gt;&lt;span&gt;&lt;span style=&quot;color: rgb(51, 51, 51);&quot;&gt;&lt;font style=&quot;font-size: 17px;&quot;&gt;&quot;1 - Cães de Pequeno Porte;&lt;br&gt;&lt;/font&gt;&lt;/span&gt;&lt;/span&gt;&lt;/div&gt;&lt;div style=&quot;display: flex; justify-content: flex-start; text-align: left; align-items: baseline; line-height: 1.25; margin-top: -2px; font-size: 17px;&quot;&gt;&lt;span&gt;&lt;span style=&quot;color: rgb(51, 51, 51);&quot;&gt;&lt;font style=&quot;font-size: 17px;&quot;&gt;2 - Cães de Médio Porte;&lt;br&gt;&lt;/font&gt;&lt;/span&gt;&lt;/span&gt;&lt;/div&gt;&lt;div style=&quot;display: flex; justify-content: flex-start; text-align: left; align-items: baseline; line-height: 1.25; margin-top: -2px; font-size: 17px;&quot;&gt;&lt;span style=&quot;color: rgb(51, 51, 51);&quot;&gt;&lt;font style=&quot;font-size: 17px;&quot;&gt;3 - Cães de Grande Porte;&quot;&lt;/font&gt;&lt;/span&gt;&lt;/div&gt;" style="html=1;overflow=block;blockSpacing=1;whiteSpace=wrap;fontSize=13;spacing=3.8;verticalAlign=middle;strokeColor=#5e5e5e;strokeOpacity=100;rounded=1;absoluteArcSize=1;arcSize=9;strokeWidth=2.3;lucidId=9xcQxmi-iPVT;" parent="1" vertex="1">
          <mxGeometry x="-841" y="-334" width="267" height="120" as="geometry" />
        </mxCell>
        <mxCell id="n_CAfEEjPnqXCp9ccczC-74" style="edgeStyle=orthogonalEdgeStyle;rounded=0;orthogonalLoop=1;jettySize=auto;html=1;entryX=0.598;entryY=0;entryDx=0;entryDy=0;entryPerimeter=0;" parent="1" source="n_CAfEEjPnqXCp9ccczC-4" target="n_CAfEEjPnqXCp9ccczC-114" edge="1">
          <mxGeometry relative="1" as="geometry">
            <mxPoint x="-38.499999999999545" y="-121" as="targetPoint" />
            <Array as="points">
              <mxPoint x="-326" y="-170" />
              <mxPoint x="-38" y="-170" />
            </Array>
          </mxGeometry>
        </mxCell>
        <mxCell id="n_CAfEEjPnqXCp9ccczC-75" style="edgeStyle=orthogonalEdgeStyle;rounded=0;orthogonalLoop=1;jettySize=auto;html=1;entryX=0.727;entryY=0;entryDx=0;entryDy=0;entryPerimeter=0;" parent="1" source="n_CAfEEjPnqXCp9ccczC-4" target="n_CAfEEjPnqXCp9ccczC-115" edge="1">
          <mxGeometry relative="1" as="geometry">
            <mxPoint x="249.5" y="-121" as="targetPoint" />
            <Array as="points">
              <mxPoint x="-326" y="-170" />
              <mxPoint x="250" y="-170" />
            </Array>
          </mxGeometry>
        </mxCell>
        <mxCell id="n_CAfEEjPnqXCp9ccczC-118" style="edgeStyle=orthogonalEdgeStyle;rounded=0;orthogonalLoop=1;jettySize=auto;html=1;fontSize=17;" parent="1" source="n_CAfEEjPnqXCp9ccczC-4" target="n_CAfEEjPnqXCp9ccczC-113" edge="1">
          <mxGeometry relative="1" as="geometry">
            <Array as="points">
              <mxPoint x="-325" y="-162" />
              <mxPoint x="-325" y="-162" />
            </Array>
          </mxGeometry>
        </mxCell>
        <mxCell id="n_CAfEEjPnqXCp9ccczC-4" value="&lt;div style=&quot;display: flex; justify-content: center; text-align: center; align-items: baseline; line-height: 1.25; margin-top: -2px; font-size: 17px;&quot;&gt;&lt;span style=&quot;color: rgb(51, 51, 51);&quot;&gt;&lt;font style=&quot;font-size: 17px;&quot;&gt;&quot;2- RAÇÃO PARA GATOS&quot;&lt;br&gt;&lt;/font&gt;&lt;/span&gt;&lt;/div&gt;&lt;div style=&quot;display: flex; justify-content: flex-start; text-align: left; align-items: baseline; line-height: 1.25; margin-top: -2px; font-size: 17px;&quot;&gt;&lt;span&gt;&lt;span style=&quot;color: rgb(51, 51, 51);&quot;&gt;&lt;font style=&quot;font-size: 17px;&quot;&gt;&quot;1 - Gatos Filhotes;&lt;br&gt;&lt;/font&gt;&lt;/span&gt;&lt;/span&gt;&lt;/div&gt;&lt;div style=&quot;display: flex; justify-content: flex-start; text-align: left; align-items: baseline; line-height: 1.25; margin-top: -2px; font-size: 17px;&quot;&gt;&lt;span&gt;&lt;span style=&quot;color: rgb(51, 51, 51);&quot;&gt;&lt;font style=&quot;font-size: 17px;&quot;&gt;2 - Gatos Adultos;&lt;br&gt;&lt;/font&gt;&lt;/span&gt;&lt;/span&gt;&lt;/div&gt;&lt;div style=&quot;display: flex; justify-content: flex-start; text-align: left; align-items: baseline; line-height: 1.25; margin-top: -2px; font-size: 17px;&quot;&gt;&lt;span style=&quot;color: rgb(51, 51, 51);&quot;&gt;&lt;font style=&quot;font-size: 17px;&quot;&gt;3 - Gatos Castrados;&quot;&lt;/font&gt;&lt;/span&gt;&lt;/div&gt;" style="html=1;overflow=block;blockSpacing=1;whiteSpace=wrap;fontSize=13;spacing=3.8;verticalAlign=middle;strokeColor=#5e5e5e;strokeOpacity=100;rounded=1;absoluteArcSize=1;arcSize=9;strokeWidth=2.3;lucidId=.ycQTFY_fPws;" parent="1" vertex="1">
          <mxGeometry x="-459" y="-334" width="267" height="120" as="geometry" />
        </mxCell>
        <mxCell id="n_CAfEEjPnqXCp9ccczC-92" style="edgeStyle=orthogonalEdgeStyle;rounded=0;orthogonalLoop=1;jettySize=auto;html=1;fontSize=17;" parent="1" source="n_CAfEEjPnqXCp9ccczC-5" target="n_CAfEEjPnqXCp9ccczC-41" edge="1">
          <mxGeometry relative="1" as="geometry">
            <Array as="points">
              <mxPoint x="-2025" y="10" />
              <mxPoint x="-2325" y="10" />
            </Array>
          </mxGeometry>
        </mxCell>
        <mxCell id="n_CAfEEjPnqXCp9ccczC-93" style="edgeStyle=orthogonalEdgeStyle;rounded=0;orthogonalLoop=1;jettySize=auto;html=1;entryX=0.5;entryY=0;entryDx=0;entryDy=0;fontSize=17;" parent="1" source="n_CAfEEjPnqXCp9ccczC-5" target="n_CAfEEjPnqXCp9ccczC-43" edge="1">
          <mxGeometry relative="1" as="geometry">
            <Array as="points">
              <mxPoint x="-2025" y="-10" />
              <mxPoint x="-2025" y="-10" />
            </Array>
          </mxGeometry>
        </mxCell>
        <mxCell id="n_CAfEEjPnqXCp9ccczC-94" style="edgeStyle=orthogonalEdgeStyle;rounded=0;orthogonalLoop=1;jettySize=auto;html=1;fontSize=17;" parent="1" source="n_CAfEEjPnqXCp9ccczC-5" target="n_CAfEEjPnqXCp9ccczC-45" edge="1">
          <mxGeometry relative="1" as="geometry">
            <Array as="points">
              <mxPoint x="-2025" y="10" />
              <mxPoint x="-1733" y="10" />
            </Array>
          </mxGeometry>
        </mxCell>
        <mxCell id="n_CAfEEjPnqXCp9ccczC-5" value="&lt;div style=&quot;display: flex; justify-content: center; text-align: center; align-items: baseline; line-height: 1.25; margin-top: -2px; font-size: 17px;&quot;&gt;&lt;span style=&quot;color: rgb(51, 51, 51);&quot;&gt;&lt;font style=&quot;font-size: 17px;&quot;&gt;&quot;1- CÃES DE PEQUENO PORTE&quot;&lt;br&gt;&lt;/font&gt;&lt;/span&gt;&lt;/div&gt;&lt;div style=&quot;display: flex; justify-content: flex-start; text-align: left; align-items: baseline; line-height: 1.25; margin-top: -2px; font-size: 17px;&quot;&gt;&lt;span&gt;&lt;span style=&quot;color: rgb(51, 51, 51);&quot;&gt;&lt;font style=&quot;font-size: 17px;&quot;&gt;&quot;Marca da Ração: &lt;br&gt;&lt;/font&gt;&lt;/span&gt;&lt;/span&gt;&lt;/div&gt;&lt;div style=&quot;display: flex; justify-content: flex-start; text-align: left; align-items: baseline; line-height: 1.25; margin-top: -2px; font-size: 17px;&quot;&gt;&lt;span&gt;&lt;span style=&quot;color: rgb(51, 51, 51);&quot;&gt;&lt;font style=&quot;font-size: 17px;&quot;&gt;1 - Deli Dog&lt;br&gt;&lt;/font&gt;&lt;/span&gt;&lt;/span&gt;&lt;/div&gt;&lt;div style=&quot;display: flex; justify-content: flex-start; text-align: left; align-items: baseline; line-height: 1.25; margin-top: -2px; font-size: 17px;&quot;&gt;&lt;span&gt;&lt;span style=&quot;color: rgb(51, 51, 51);&quot;&gt;&lt;font style=&quot;font-size: 17px;&quot;&gt;2 - Royal Canin&lt;br&gt;&lt;/font&gt;&lt;/span&gt;&lt;/span&gt;&lt;/div&gt;&lt;div style=&quot;display: flex; justify-content: flex-start; text-align: left; align-items: baseline; line-height: 1.25; margin-top: -2px; font-size: 17px;&quot;&gt;&lt;span style=&quot;color: rgb(51, 51, 51);&quot;&gt;&lt;font style=&quot;font-size: 17px;&quot;&gt;3 - Biriba&quot;&lt;/font&gt;&lt;/span&gt;&lt;/div&gt;" style="html=1;overflow=block;blockSpacing=1;whiteSpace=wrap;fontSize=13;spacing=3.8;verticalAlign=middle;strokeColor=#5e5e5e;strokeOpacity=100;rounded=1;absoluteArcSize=1;arcSize=9;strokeWidth=2.3;lucidId=EBcQRNQDmzNJ;" parent="1" vertex="1">
          <mxGeometry x="-2150.5" y="-160" width="270.5" height="120" as="geometry" />
        </mxCell>
        <mxCell id="n_CAfEEjPnqXCp9ccczC-88" style="edgeStyle=orthogonalEdgeStyle;rounded=0;orthogonalLoop=1;jettySize=auto;html=1;fontSize=17;" parent="1" source="n_CAfEEjPnqXCp9ccczC-6" target="n_CAfEEjPnqXCp9ccczC-53" edge="1">
          <mxGeometry relative="1" as="geometry">
            <Array as="points">
              <mxPoint x="-1447" y="30" />
              <mxPoint x="-1447" y="30" />
            </Array>
          </mxGeometry>
        </mxCell>
        <mxCell id="n_CAfEEjPnqXCp9ccczC-89" style="edgeStyle=orthogonalEdgeStyle;rounded=0;orthogonalLoop=1;jettySize=auto;html=1;fontSize=17;" parent="1" source="n_CAfEEjPnqXCp9ccczC-6" target="n_CAfEEjPnqXCp9ccczC-57" edge="1">
          <mxGeometry relative="1" as="geometry">
            <Array as="points">
              <mxPoint x="-1447" y="20" />
              <mxPoint x="-1138" y="20" />
            </Array>
          </mxGeometry>
        </mxCell>
        <mxCell id="n_CAfEEjPnqXCp9ccczC-90" style="edgeStyle=orthogonalEdgeStyle;rounded=0;orthogonalLoop=1;jettySize=auto;html=1;entryX=0.5;entryY=0;entryDx=0;entryDy=0;fontSize=17;" parent="1" source="n_CAfEEjPnqXCp9ccczC-6" target="n_CAfEEjPnqXCp9ccczC-61" edge="1">
          <mxGeometry relative="1" as="geometry">
            <Array as="points">
              <mxPoint x="-1447" y="20" />
              <mxPoint x="-846" y="20" />
            </Array>
          </mxGeometry>
        </mxCell>
        <mxCell id="n_CAfEEjPnqXCp9ccczC-6" value="&lt;div style=&quot;display: flex; justify-content: center; text-align: center; align-items: baseline; line-height: 1.25; margin-top: -2px; font-size: 17px;&quot;&gt;&lt;span style=&quot;color: rgb(51, 51, 51);&quot;&gt;&lt;font style=&quot;font-size: 17px;&quot;&gt;&quot;2- CÃES DE MÉDIO PORTE&quot;&lt;br&gt;&lt;/font&gt;&lt;/span&gt;&lt;/div&gt;&lt;div style=&quot;display: flex; justify-content: flex-start; text-align: left; align-items: baseline; line-height: 1.25; margin-top: -2px; font-size: 17px;&quot;&gt;&lt;span&gt;&lt;span style=&quot;color: rgb(51, 51, 51);&quot;&gt;&lt;font style=&quot;font-size: 17px;&quot;&gt;&quot;Marca da Ração:&lt;br&gt;&lt;/font&gt;&lt;/span&gt;&lt;/span&gt;&lt;/div&gt;&lt;div style=&quot;display: flex; justify-content: flex-start; text-align: left; align-items: baseline; line-height: 1.25; margin-top: -2px; font-size: 17px;&quot;&gt;&lt;span&gt;&lt;span style=&quot;color: rgb(51, 51, 51);&quot;&gt;&lt;font style=&quot;font-size: 17px;&quot;&gt;1 - Deli Dog&lt;br&gt;&lt;/font&gt;&lt;/span&gt;&lt;/span&gt;&lt;/div&gt;&lt;div style=&quot;display: flex; justify-content: flex-start; text-align: left; align-items: baseline; line-height: 1.25; margin-top: -2px; font-size: 17px;&quot;&gt;&lt;span&gt;&lt;span style=&quot;color: rgb(51, 51, 51);&quot;&gt;&lt;font style=&quot;font-size: 17px;&quot;&gt;2 - Royal Canin&lt;br&gt;&lt;/font&gt;&lt;/span&gt;&lt;/span&gt;&lt;/div&gt;&lt;div style=&quot;display: flex; justify-content: flex-start; text-align: left; align-items: baseline; line-height: 1.25; margin-top: -2px; font-size: 17px;&quot;&gt;&lt;span style=&quot;color: rgb(51, 51, 51);&quot;&gt;&lt;font style=&quot;font-size: 17px;&quot;&gt;3 - Bi&lt;/font&gt;&lt;/span&gt;&lt;span style=&quot;color: rgb(51, 51, 51);&quot;&gt;&lt;font style=&quot;font-size: 17px;&quot;&gt;riba&quot;&lt;/font&gt;&lt;/span&gt;&lt;/div&gt;" style="html=1;overflow=block;blockSpacing=1;whiteSpace=wrap;fontSize=13;spacing=3.8;verticalAlign=middle;strokeColor=#5e5e5e;strokeOpacity=100;rounded=1;absoluteArcSize=1;arcSize=9;strokeWidth=2.3;lucidId=~CcQr8CN0smj;" parent="1" vertex="1">
          <mxGeometry x="-1573" y="-160" width="251" height="120" as="geometry" />
        </mxCell>
        <mxCell id="n_CAfEEjPnqXCp9ccczC-65" style="edgeStyle=orthogonalEdgeStyle;rounded=0;orthogonalLoop=1;jettySize=auto;html=1;entryX=0.5;entryY=0;entryDx=0;entryDy=0;" parent="1" source="n_CAfEEjPnqXCp9ccczC-11" target="n_CAfEEjPnqXCp9ccczC-12" edge="1">
          <mxGeometry relative="1" as="geometry" />
        </mxCell>
        <mxCell id="n_CAfEEjPnqXCp9ccczC-66" style="edgeStyle=orthogonalEdgeStyle;rounded=0;orthogonalLoop=1;jettySize=auto;html=1;" parent="1" source="n_CAfEEjPnqXCp9ccczC-11" target="n_CAfEEjPnqXCp9ccczC-13" edge="1">
          <mxGeometry relative="1" as="geometry" />
        </mxCell>
        <mxCell id="n_CAfEEjPnqXCp9ccczC-67" style="edgeStyle=orthogonalEdgeStyle;rounded=0;orthogonalLoop=1;jettySize=auto;html=1;exitX=1;exitY=0.5;exitDx=0;exitDy=0;" parent="1" source="n_CAfEEjPnqXCp9ccczC-11" target="n_CAfEEjPnqXCp9ccczC-14" edge="1">
          <mxGeometry relative="1" as="geometry" />
        </mxCell>
        <mxCell id="n_CAfEEjPnqXCp9ccczC-11" value="&lt;div style=&quot;display: flex; justify-content: center; text-align: center; align-items: baseline; line-height: 1.25; margin-top: -2px; font-size: 17px;&quot;&gt;&lt;span style=&quot;color: rgb(51, 51, 51);&quot;&gt;&lt;font style=&quot;font-size: 17px;&quot;&gt;&quot;VERIFICAR ESTOQUES&quot;&lt;br&gt;&lt;/font&gt;&lt;/span&gt;&lt;/div&gt;&lt;div style=&quot;display: flex; justify-content: flex-start; text-align: left; align-items: baseline; line-height: 1.25; margin-top: -2px; font-size: 17px;&quot;&gt;&lt;span&gt;&lt;span style=&quot;color: rgb(51, 51, 51);&quot;&gt;&lt;font style=&quot;font-size: 17px;&quot;&gt;&quot;1 - Marcas de Ração;&lt;br&gt;&lt;/font&gt;&lt;/span&gt;&lt;/span&gt;&lt;/div&gt;&lt;div style=&quot;display: flex; justify-content: flex-start; text-align: left; align-items: baseline; line-height: 1.25; margin-top: -2px; font-size: 17px;&quot;&gt;&lt;span&gt;&lt;span style=&quot;color: rgb(51, 51, 51);&quot;&gt;&lt;font style=&quot;font-size: 17px;&quot;&gt;2 - Marcas de ração por porte do animal;&lt;br&gt;&lt;/font&gt;&lt;/span&gt;&lt;/span&gt;&lt;/div&gt;&lt;div style=&quot;display: flex; justify-content: flex-start; text-align: left; align-items: baseline; line-height: 1.25; margin-top: -2px; font-size: 17px;&quot;&gt;&lt;span&gt;&lt;font style=&quot;font-size: 17px;&quot;&gt;&lt;span style=&quot;color: rgb(51, 51, 51);&quot;&gt;3 - &lt;/span&gt;&lt;span style=&quot;color: rgb(0, 0, 0);&quot;&gt;Quantidade de alimentos por porte de animal;&lt;/span&gt;&lt;span style=&quot;color: rgb(51, 51, 51);&quot;&gt; &lt;br&gt;&lt;/span&gt;&lt;/font&gt;&lt;/span&gt;&lt;/div&gt;&lt;div style=&quot;display: flex; justify-content: flex-start; text-align: left; align-items: baseline; line-height: 1.25; margin-top: -2px; font-size: 17px;&quot;&gt;&lt;span style=&quot;color: rgb(51, 51, 51);&quot;&gt;&lt;font style=&quot;font-size: 17px;&quot;&gt;Digite o número da opção desejada: &quot;&lt;/font&gt;&lt;/span&gt;&lt;/div&gt;" style="html=1;overflow=block;blockSpacing=1;whiteSpace=wrap;fontSize=13;spacing=3.8;verticalAlign=middle;strokeColor=#5e5e5e;strokeOpacity=100;rounded=1;absoluteArcSize=1;arcSize=9;strokeWidth=2.3;lucidId=uHcQ.bKq0OwR;" parent="1" vertex="1">
          <mxGeometry x="780" y="-572" width="389" height="162" as="geometry" />
        </mxCell>
        <mxCell id="n_CAfEEjPnqXCp9ccczC-68" style="edgeStyle=orthogonalEdgeStyle;rounded=0;orthogonalLoop=1;jettySize=auto;html=1;entryX=0;entryY=0.5;entryDx=0;entryDy=0;" parent="1" source="n_CAfEEjPnqXCp9ccczC-12" target="n_CAfEEjPnqXCp9ccczC-15" edge="1">
          <mxGeometry relative="1" as="geometry">
            <Array as="points">
              <mxPoint x="630" y="-150" />
              <mxPoint x="976" y="-150" />
              <mxPoint x="976" y="-15" />
            </Array>
          </mxGeometry>
        </mxCell>
        <mxCell id="n_CAfEEjPnqXCp9ccczC-12" value="TABELA MARCAS EM ESTOQUE" style="html=1;overflow=block;blockSpacing=1;whiteSpace=wrap;fontSize=16.7;fontColor=#333333;spacing=9;strokeColor=#5e5e5e;strokeOpacity=100;rounded=1;absoluteArcSize=1;arcSize=9;strokeWidth=2.3;lucidId=jScQAwHUvcaZ;" parent="1" vertex="1">
          <mxGeometry x="525" y="-335" width="195" height="104" as="geometry" />
        </mxCell>
        <mxCell id="n_CAfEEjPnqXCp9ccczC-70" style="edgeStyle=orthogonalEdgeStyle;rounded=0;orthogonalLoop=1;jettySize=auto;html=1;" parent="1" source="n_CAfEEjPnqXCp9ccczC-13" target="n_CAfEEjPnqXCp9ccczC-15" edge="1">
          <mxGeometry relative="1" as="geometry" />
        </mxCell>
        <mxCell id="n_CAfEEjPnqXCp9ccczC-13" value="TABELA MARCAS DE RAÇÃO POR PORTE DO ANIMAL" style="html=1;overflow=block;blockSpacing=1;whiteSpace=wrap;fontSize=16.7;fontColor=#333333;spacing=9;strokeColor=#5e5e5e;strokeOpacity=100;rounded=1;absoluteArcSize=1;arcSize=9;strokeWidth=2.3;lucidId=SScQpMLvfmn7;" parent="1" vertex="1">
          <mxGeometry x="871" y="-335" width="209" height="104" as="geometry" />
        </mxCell>
        <mxCell id="n_CAfEEjPnqXCp9ccczC-69" style="edgeStyle=orthogonalEdgeStyle;rounded=0;orthogonalLoop=1;jettySize=auto;html=1;entryX=1;entryY=0.5;entryDx=0;entryDy=0;" parent="1" source="n_CAfEEjPnqXCp9ccczC-14" target="n_CAfEEjPnqXCp9ccczC-15" edge="1">
          <mxGeometry relative="1" as="geometry">
            <Array as="points">
              <mxPoint x="1320" y="-150" />
              <mxPoint x="976" y="-150" />
              <mxPoint x="976" y="-15" />
            </Array>
          </mxGeometry>
        </mxCell>
        <mxCell id="n_CAfEEjPnqXCp9ccczC-14" value="TABELA QUANTIDADE DE ALIMENTOS POR PORTE DO ANIMAL" style="html=1;overflow=block;blockSpacing=1;whiteSpace=wrap;fontSize=16.7;fontColor=#333333;spacing=9;strokeColor=#5e5e5e;strokeOpacity=100;rounded=1;absoluteArcSize=1;arcSize=9;strokeWidth=2.3;lucidId=eTcQ2rzFZYb_;" parent="1" vertex="1">
          <mxGeometry x="1229" y="-335" width="195" height="104" as="geometry" />
        </mxCell>
        <mxCell id="n_CAfEEjPnqXCp9ccczC-183" style="edgeStyle=orthogonalEdgeStyle;rounded=0;orthogonalLoop=1;jettySize=auto;html=1;fontSize=17;" parent="1" source="n_CAfEEjPnqXCp9ccczC-15" target="n_CAfEEjPnqXCp9ccczC-1" edge="1">
          <mxGeometry relative="1" as="geometry">
            <Array as="points">
              <mxPoint x="1500" y="-15" />
              <mxPoint x="1500" y="-922" />
            </Array>
          </mxGeometry>
        </mxCell>
        <mxCell id="n_CAfEEjPnqXCp9ccczC-184" value="Sim" style="edgeLabel;html=1;align=center;verticalAlign=middle;resizable=0;points=[];fontSize=17;" parent="n_CAfEEjPnqXCp9ccczC-183" vertex="1" connectable="0">
          <mxGeometry x="0.1725" y="2" relative="1" as="geometry">
            <mxPoint x="352" y="174" as="offset" />
          </mxGeometry>
        </mxCell>
        <mxCell id="mm4QMuO7m49nY0iOttvm-6" value="&lt;font style=&quot;font-size: 13px;&quot;&gt;&lt;b&gt;Sim&lt;/b&gt;&lt;/font&gt;" style="edgeLabel;html=1;align=center;verticalAlign=middle;resizable=0;points=[];" vertex="1" connectable="0" parent="n_CAfEEjPnqXCp9ccczC-183">
          <mxGeometry x="-0.9227" y="-3" relative="1" as="geometry">
            <mxPoint y="-8" as="offset" />
          </mxGeometry>
        </mxCell>
        <mxCell id="n_CAfEEjPnqXCp9ccczC-15" value="&quot;Consultar novamente? (S/N)&quot;" style="html=1;overflow=block;blockSpacing=1;whiteSpace=wrap;rhombus;fontSize=16.7;fontColor=#333333;spacing=3.8;strokeColor=#5e5e5e;strokeOpacity=100;rounded=1;absoluteArcSize=1;arcSize=9;strokeWidth=2.3;lucidId=nUcQ-_NO7yt8;" parent="1" vertex="1">
          <mxGeometry x="871" y="-110" width="210" height="190" as="geometry" />
        </mxCell>
        <mxCell id="n_CAfEEjPnqXCp9ccczC-32" value="Encerra o Programa" style="html=1;overflow=block;blockSpacing=1;whiteSpace=wrap;shape=parallelogram;perimeter=parallelogramPerimeter;anchorPointDirection=0;fontSize=16.7;fontColor=#333333;spacing=3.8;strokeColor=#5e5e5e;strokeOpacity=100;rounded=1;absoluteArcSize=1;arcSize=9;strokeWidth=2.3;lucidId=8WcQGbLYmC0B;" parent="1" vertex="1">
          <mxGeometry x="914.5" y="210" width="120" height="90" as="geometry" />
        </mxCell>
        <mxCell id="n_CAfEEjPnqXCp9ccczC-33" value="" style="html=1;jettySize=18;whiteSpace=wrap;overflow=block;blockSpacing=1;fontSize=13;strokeColor=#5E5E5E;strokeWidth=1.5;rounded=1;arcSize=12;edgeStyle=orthogonalEdgeStyle;startArrow=none;endArrow=block;endFill=1;exitX=0.5;exitY=0.996;exitPerimeter=0;entryX=0.5;entryY=-0.012;entryPerimeter=0;lucidId=FXcQ63sO.00J;" parent="1" source="n_CAfEEjPnqXCp9ccczC-15" target="n_CAfEEjPnqXCp9ccczC-32" edge="1">
          <mxGeometry width="100" height="100" relative="1" as="geometry">
            <Array as="points" />
          </mxGeometry>
        </mxCell>
        <mxCell id="n_CAfEEjPnqXCp9ccczC-34" value="Não" style="text;html=1;resizable=0;labelBackgroundColor=default;align=center;verticalAlign=middle;fontStyle=1;fontColor=#333333;fontSize=13.3;" parent="n_CAfEEjPnqXCp9ccczC-33" vertex="1">
          <mxGeometry relative="1" as="geometry" />
        </mxCell>
        <mxCell id="utxzDUO19A-Ywpz3fy0E-13" style="edgeStyle=orthogonalEdgeStyle;rounded=0;orthogonalLoop=1;jettySize=auto;html=1;entryX=0.527;entryY=0;entryDx=0;entryDy=0;entryPerimeter=0;" parent="1" source="n_CAfEEjPnqXCp9ccczC-41" target="utxzDUO19A-Ywpz3fy0E-12" edge="1">
          <mxGeometry relative="1" as="geometry">
            <mxPoint x="-2325" y="160" as="targetPoint" />
          </mxGeometry>
        </mxCell>
        <mxCell id="n_CAfEEjPnqXCp9ccczC-41" value="&lt;div style=&quot;display: flex; justify-content: center; text-align: center; align-items: baseline; line-height: 1.25; margin-top: -2px; font-size: 17px;&quot;&gt;&lt;span style=&quot;color: rgb(51, 51, 51);&quot;&gt;&lt;font style=&quot;font-size: 17px;&quot;&gt;1 - Deli Dog&lt;br&gt;&lt;/font&gt;&lt;/span&gt;&lt;/div&gt;&lt;div style=&quot;display: flex; justify-content: flex-start; text-align: left; align-items: baseline; line-height: 1.25; margin-top: -2px; font-size: 17px;&quot;&gt;&lt;span style=&quot;color: rgb(51, 51, 51);&quot;&gt;&lt;font style=&quot;font-size: 17px;&quot;&gt;&quot;Insira o peso da embalagem: &quot;&lt;/font&gt;&lt;/span&gt;&lt;/div&gt;" style="html=1;overflow=block;blockSpacing=1;whiteSpace=wrap;fontSize=13;spacing=3.8;verticalAlign=middle;strokeColor=#5e5e5e;strokeOpacity=100;rounded=1;absoluteArcSize=1;arcSize=9;strokeWidth=2.3;lucidId=E8cQUUa6jlSK;" parent="1" vertex="1">
          <mxGeometry x="-2460" y="70" width="270" height="60" as="geometry" />
        </mxCell>
        <mxCell id="utxzDUO19A-Ywpz3fy0E-16" style="edgeStyle=orthogonalEdgeStyle;rounded=0;orthogonalLoop=1;jettySize=auto;html=1;" parent="1" source="n_CAfEEjPnqXCp9ccczC-43" target="utxzDUO19A-Ywpz3fy0E-15" edge="1">
          <mxGeometry relative="1" as="geometry" />
        </mxCell>
        <mxCell id="n_CAfEEjPnqXCp9ccczC-43" value="&lt;div style=&quot;display: flex; justify-content: center; text-align: center; align-items: baseline; line-height: 1.25; margin-top: -2px; font-size: 17px;&quot;&gt;&lt;span style=&quot;color: rgb(51, 51, 51);&quot;&gt;&lt;font style=&quot;font-size: 17px;&quot;&gt;2 - Royal Canin&lt;br&gt;&lt;/font&gt;&lt;/span&gt;&lt;/div&gt;&lt;div style=&quot;display: flex; justify-content: flex-start; text-align: left; align-items: baseline; line-height: 1.25; margin-top: -2px; font-size: 17px;&quot;&gt;&lt;span style=&quot;color: rgb(51, 51, 51);&quot;&gt;&lt;font style=&quot;font-size: 17px;&quot;&gt;&quot;Insira o peso da embalagem: &quot;&lt;/font&gt;&lt;/span&gt;&lt;/div&gt;" style="html=1;overflow=block;blockSpacing=1;whiteSpace=wrap;fontSize=13;spacing=3.8;verticalAlign=middle;strokeColor=#5e5e5e;strokeOpacity=100;rounded=1;absoluteArcSize=1;arcSize=9;strokeWidth=2.3;lucidId=D9cQlhRYlb94;" parent="1" vertex="1">
          <mxGeometry x="-2160" y="70" width="270" height="60" as="geometry" />
        </mxCell>
        <mxCell id="utxzDUO19A-Ywpz3fy0E-19" style="edgeStyle=orthogonalEdgeStyle;rounded=0;orthogonalLoop=1;jettySize=auto;html=1;entryX=0.479;entryY=0.021;entryDx=0;entryDy=0;entryPerimeter=0;" parent="1" source="n_CAfEEjPnqXCp9ccczC-45" target="utxzDUO19A-Ywpz3fy0E-18" edge="1">
          <mxGeometry relative="1" as="geometry" />
        </mxCell>
        <mxCell id="n_CAfEEjPnqXCp9ccczC-45" value="&lt;div style=&quot;display: flex; justify-content: center; text-align: center; align-items: baseline; line-height: 1.25; margin-top: -2px; font-size: 17px;&quot;&gt;&lt;span style=&quot;color: rgb(51, 51, 51);&quot;&gt;&lt;font style=&quot;font-size: 17px;&quot;&gt;3 - Biriba&lt;br&gt;&lt;/font&gt;&lt;/span&gt;&lt;/div&gt;&lt;div style=&quot;display: flex; justify-content: flex-start; text-align: left; align-items: baseline; line-height: 1.25; margin-top: -2px; font-size: 17px;&quot;&gt;&lt;span style=&quot;color: rgb(51, 51, 51);&quot;&gt;&lt;font style=&quot;font-size: 17px;&quot;&gt;&quot;Insira o peso da embalagem: &quot;&lt;/font&gt;&lt;/span&gt;&lt;/div&gt;" style="html=1;overflow=block;blockSpacing=1;whiteSpace=wrap;fontSize=13;spacing=3.8;verticalAlign=middle;strokeColor=#5e5e5e;strokeOpacity=100;rounded=1;absoluteArcSize=1;arcSize=9;strokeWidth=2.3;lucidId=39cQ4kihKq_4;" parent="1" vertex="1">
          <mxGeometry x="-1860" y="70" width="253" height="60" as="geometry" />
        </mxCell>
        <mxCell id="n_CAfEEjPnqXCp9ccczC-195" style="edgeStyle=orthogonalEdgeStyle;rounded=0;orthogonalLoop=1;jettySize=auto;html=1;fontSize=17;" parent="1" source="n_CAfEEjPnqXCp9ccczC-47" target="n_CAfEEjPnqXCp9ccczC-161" edge="1">
          <mxGeometry relative="1" as="geometry">
            <Array as="points">
              <mxPoint x="-2332" y="330" />
              <mxPoint x="-1200" y="330" />
            </Array>
          </mxGeometry>
        </mxCell>
        <mxCell id="n_CAfEEjPnqXCp9ccczC-47" value="deli_dogP+=peso" style="html=1;overflow=block;blockSpacing=1;whiteSpace=wrap;shape=parallelogram;perimeter=parallelogramPerimeter;anchorPointDirection=0;fontSize=16.7;fontColor=#333333;spacing=3.8;strokeColor=#5e5e5e;strokeOpacity=100;rounded=1;absoluteArcSize=1;arcSize=9;strokeWidth=2.3;lucidId=o_cQYN_FLAkT;" parent="1" vertex="1">
          <mxGeometry x="-2420" y="263" width="176" height="45" as="geometry" />
        </mxCell>
        <mxCell id="n_CAfEEjPnqXCp9ccczC-196" style="edgeStyle=orthogonalEdgeStyle;rounded=0;orthogonalLoop=1;jettySize=auto;html=1;entryX=0.5;entryY=0;entryDx=0;entryDy=0;fontSize=17;" parent="1" source="n_CAfEEjPnqXCp9ccczC-49" target="n_CAfEEjPnqXCp9ccczC-161" edge="1">
          <mxGeometry relative="1" as="geometry">
            <Array as="points">
              <mxPoint x="-2027" y="330" />
              <mxPoint x="-1200" y="330" />
              <mxPoint x="-1200" y="890" />
            </Array>
          </mxGeometry>
        </mxCell>
        <mxCell id="n_CAfEEjPnqXCp9ccczC-49" value="royal_caninP+=peso" style="html=1;overflow=block;blockSpacing=1;whiteSpace=wrap;shape=parallelogram;perimeter=parallelogramPerimeter;anchorPointDirection=0;fontSize=16.7;fontColor=#333333;spacing=3.8;strokeColor=#5e5e5e;strokeOpacity=100;rounded=1;absoluteArcSize=1;arcSize=9;strokeWidth=2.3;lucidId=o.cQCN6iHQLT;" parent="1" vertex="1">
          <mxGeometry x="-2127.5" y="263" width="205" height="45" as="geometry" />
        </mxCell>
        <mxCell id="n_CAfEEjPnqXCp9ccczC-197" style="edgeStyle=orthogonalEdgeStyle;rounded=0;orthogonalLoop=1;jettySize=auto;html=1;fontSize=17;" parent="1" source="n_CAfEEjPnqXCp9ccczC-50" target="n_CAfEEjPnqXCp9ccczC-161" edge="1">
          <mxGeometry relative="1" as="geometry">
            <Array as="points">
              <mxPoint x="-1732" y="330" />
              <mxPoint x="-1200" y="330" />
            </Array>
          </mxGeometry>
        </mxCell>
        <mxCell id="n_CAfEEjPnqXCp9ccczC-50" value="biribaP+=peso" style="html=1;overflow=block;blockSpacing=1;whiteSpace=wrap;shape=parallelogram;perimeter=parallelogramPerimeter;anchorPointDirection=0;fontSize=16.7;fontColor=#333333;spacing=3.8;strokeColor=#5e5e5e;strokeOpacity=100;rounded=1;absoluteArcSize=1;arcSize=9;strokeWidth=2.3;lucidId=A.cQcLnbwRR~;" parent="1" vertex="1">
          <mxGeometry x="-1816" y="263" width="165" height="45" as="geometry" />
        </mxCell>
        <mxCell id="n_CAfEEjPnqXCp9ccczC-53" value="&lt;div style=&quot;display: flex; justify-content: center; text-align: center; align-items: baseline; line-height: 1.25; margin-top: -2px; font-size: 17px;&quot;&gt;&lt;span style=&quot;color: rgb(51, 51, 51);&quot;&gt;&lt;font style=&quot;font-size: 17px;&quot;&gt;1 - Deli Dog&lt;br&gt;&lt;/font&gt;&lt;/span&gt;&lt;/div&gt;&lt;div style=&quot;display: flex; justify-content: flex-start; text-align: left; align-items: baseline; line-height: 1.25; margin-top: -2px; font-size: 17px;&quot;&gt;&lt;span style=&quot;color: rgb(51, 51, 51);&quot;&gt;&lt;font style=&quot;font-size: 17px;&quot;&gt;&quot;Insira o peso da embalagem: &quot;&lt;/font&gt;&lt;/span&gt;&lt;/div&gt;" style="html=1;overflow=block;blockSpacing=1;whiteSpace=wrap;fontSize=13;spacing=3.8;verticalAlign=middle;strokeColor=#5e5e5e;strokeOpacity=100;rounded=1;absoluteArcSize=1;arcSize=9;strokeWidth=2.3;lucidId=xadQSBDBNz_y;" parent="1" vertex="1">
          <mxGeometry x="-1573" y="70" width="270" height="60" as="geometry" />
        </mxCell>
        <mxCell id="n_CAfEEjPnqXCp9ccczC-192" style="edgeStyle=orthogonalEdgeStyle;rounded=0;orthogonalLoop=1;jettySize=auto;html=1;fontSize=17;" parent="1" source="n_CAfEEjPnqXCp9ccczC-55" target="n_CAfEEjPnqXCp9ccczC-161" edge="1">
          <mxGeometry relative="1" as="geometry">
            <Array as="points">
              <mxPoint x="-1463" y="330" />
              <mxPoint x="-1200" y="330" />
            </Array>
          </mxGeometry>
        </mxCell>
        <mxCell id="n_CAfEEjPnqXCp9ccczC-55" value="deli_dogM+=peso" style="html=1;overflow=block;blockSpacing=1;whiteSpace=wrap;shape=parallelogram;perimeter=parallelogramPerimeter;anchorPointDirection=0;fontSize=16.7;fontColor=#333333;spacing=3.8;strokeColor=#5e5e5e;strokeOpacity=100;rounded=1;absoluteArcSize=1;arcSize=9;strokeWidth=2.3;lucidId=UadQiRX_6uJ1;" parent="1" vertex="1">
          <mxGeometry x="-1550" y="262" width="175" height="45" as="geometry" />
        </mxCell>
        <mxCell id="utxzDUO19A-Ywpz3fy0E-24" style="edgeStyle=orthogonalEdgeStyle;rounded=0;orthogonalLoop=1;jettySize=auto;html=1;entryX=0.517;entryY=-0.006;entryDx=0;entryDy=0;entryPerimeter=0;" parent="1" source="n_CAfEEjPnqXCp9ccczC-57" target="utxzDUO19A-Ywpz3fy0E-23" edge="1">
          <mxGeometry relative="1" as="geometry" />
        </mxCell>
        <mxCell id="n_CAfEEjPnqXCp9ccczC-57" value="&lt;div style=&quot;display: flex; justify-content: center; text-align: center; align-items: baseline; line-height: 1.25; margin-top: -2px; font-size: 17px;&quot;&gt;&lt;span style=&quot;color: rgb(51, 51, 51);&quot;&gt;&lt;font style=&quot;font-size: 17px;&quot;&gt;2 - Royal Canin&lt;br&gt;&lt;/font&gt;&lt;/span&gt;&lt;/div&gt;&lt;div style=&quot;display: flex; justify-content: flex-start; text-align: left; align-items: baseline; line-height: 1.25; margin-top: -2px; font-size: 17px;&quot;&gt;&lt;span style=&quot;color: rgb(51, 51, 51);&quot;&gt;&lt;font style=&quot;font-size: 17px;&quot;&gt;&quot;Insira o peso da embalagem: &quot;&lt;/font&gt;&lt;/span&gt;&lt;/div&gt;" style="html=1;overflow=block;blockSpacing=1;whiteSpace=wrap;fontSize=13;spacing=3.8;verticalAlign=middle;strokeColor=#5e5e5e;strokeOpacity=100;rounded=1;absoluteArcSize=1;arcSize=9;strokeWidth=2.3;lucidId=cbdQ5c1NGJHm;" parent="1" vertex="1">
          <mxGeometry x="-1273" y="70" width="270" height="60" as="geometry" />
        </mxCell>
        <mxCell id="n_CAfEEjPnqXCp9ccczC-193" style="edgeStyle=orthogonalEdgeStyle;rounded=0;orthogonalLoop=1;jettySize=auto;html=1;fontSize=17;" parent="1" source="n_CAfEEjPnqXCp9ccczC-58" target="n_CAfEEjPnqXCp9ccczC-161" edge="1">
          <mxGeometry relative="1" as="geometry">
            <Array as="points">
              <mxPoint x="-1200" y="630" />
              <mxPoint x="-1200" y="630" />
            </Array>
          </mxGeometry>
        </mxCell>
        <mxCell id="n_CAfEEjPnqXCp9ccczC-58" value="royal_caninM+=peso" style="html=1;overflow=block;blockSpacing=1;whiteSpace=wrap;shape=parallelogram;perimeter=parallelogramPerimeter;anchorPointDirection=0;fontSize=16.7;fontColor=#333333;spacing=3.8;strokeColor=#5e5e5e;strokeOpacity=100;rounded=1;absoluteArcSize=1;arcSize=9;strokeWidth=2.3;lucidId=mbdQr2BaEsjg;" parent="1" vertex="1">
          <mxGeometry x="-1249" y="263" width="203" height="45" as="geometry" />
        </mxCell>
        <mxCell id="utxzDUO19A-Ywpz3fy0E-27" style="edgeStyle=orthogonalEdgeStyle;rounded=0;orthogonalLoop=1;jettySize=auto;html=1;entryX=0.474;entryY=0.013;entryDx=0;entryDy=0;entryPerimeter=0;" parent="1" source="n_CAfEEjPnqXCp9ccczC-61" target="utxzDUO19A-Ywpz3fy0E-26" edge="1">
          <mxGeometry relative="1" as="geometry">
            <Array as="points">
              <mxPoint x="-850" y="150" />
              <mxPoint x="-850" y="150" />
            </Array>
          </mxGeometry>
        </mxCell>
        <mxCell id="n_CAfEEjPnqXCp9ccczC-61" value="&lt;div style=&quot;display: flex; justify-content: center; text-align: center; align-items: baseline; line-height: 1.25; margin-top: -2px; font-size: 17px;&quot;&gt;&lt;span style=&quot;color: rgb(51, 51, 51);&quot;&gt;&lt;font style=&quot;font-size: 17px;&quot;&gt;3 - Biriba&lt;br&gt;&lt;/font&gt;&lt;/span&gt;&lt;/div&gt;&lt;div style=&quot;display: flex; justify-content: flex-start; text-align: left; align-items: baseline; line-height: 1.25; margin-top: -2px; font-size: 17px;&quot;&gt;&lt;span style=&quot;color: rgb(51, 51, 51);&quot;&gt;&lt;font style=&quot;font-size: 17px;&quot;&gt;&quot;Insira o peso da embalagem: &quot;&lt;/font&gt;&lt;/span&gt;&lt;/div&gt;" style="html=1;overflow=block;blockSpacing=1;whiteSpace=wrap;fontSize=13;spacing=3.8;verticalAlign=middle;strokeColor=#5e5e5e;strokeOpacity=100;rounded=1;absoluteArcSize=1;arcSize=9;strokeWidth=2.3;lucidId=4cdQdU3FvhKV;" parent="1" vertex="1">
          <mxGeometry x="-973" y="70" width="253" height="60" as="geometry" />
        </mxCell>
        <mxCell id="n_CAfEEjPnqXCp9ccczC-194" style="edgeStyle=orthogonalEdgeStyle;rounded=0;orthogonalLoop=1;jettySize=auto;html=1;fontSize=17;" parent="1" source="n_CAfEEjPnqXCp9ccczC-62" target="n_CAfEEjPnqXCp9ccczC-161" edge="1">
          <mxGeometry relative="1" as="geometry">
            <Array as="points">
              <mxPoint x="-855" y="330" />
              <mxPoint x="-1200" y="330" />
            </Array>
          </mxGeometry>
        </mxCell>
        <mxCell id="n_CAfEEjPnqXCp9ccczC-62" value="biribaM+=peso" style="html=1;overflow=block;blockSpacing=1;whiteSpace=wrap;shape=parallelogram;perimeter=parallelogramPerimeter;anchorPointDirection=0;fontSize=16.7;fontColor=#333333;spacing=3.8;strokeColor=#5e5e5e;strokeOpacity=100;rounded=1;absoluteArcSize=1;arcSize=9;strokeWidth=2.3;lucidId=-cdQnatChh5n;" parent="1" vertex="1">
          <mxGeometry x="-929" y="262" width="165" height="45" as="geometry" />
        </mxCell>
        <mxCell id="n_CAfEEjPnqXCp9ccczC-105" style="edgeStyle=orthogonalEdgeStyle;rounded=0;orthogonalLoop=1;jettySize=auto;html=1;fontSize=17;exitX=0.5;exitY=1;exitDx=0;exitDy=0;" parent="1" source="n_CAfEEjPnqXCp9ccczC-85" target="n_CAfEEjPnqXCp9ccczC-97" edge="1">
          <mxGeometry relative="1" as="geometry">
            <Array as="points">
              <mxPoint x="-2013" y="471" />
              <mxPoint x="-2013" y="510" />
              <mxPoint x="-2319" y="510" />
            </Array>
          </mxGeometry>
        </mxCell>
        <mxCell id="n_CAfEEjPnqXCp9ccczC-107" style="edgeStyle=orthogonalEdgeStyle;rounded=0;orthogonalLoop=1;jettySize=auto;html=1;fontSize=17;" parent="1" source="n_CAfEEjPnqXCp9ccczC-85" target="n_CAfEEjPnqXCp9ccczC-100" edge="1">
          <mxGeometry relative="1" as="geometry">
            <Array as="points">
              <mxPoint x="-2013" y="520" />
              <mxPoint x="-2013" y="520" />
            </Array>
          </mxGeometry>
        </mxCell>
        <mxCell id="n_CAfEEjPnqXCp9ccczC-108" style="edgeStyle=orthogonalEdgeStyle;rounded=0;orthogonalLoop=1;jettySize=auto;html=1;fontSize=17;" parent="1" source="n_CAfEEjPnqXCp9ccczC-85" target="n_CAfEEjPnqXCp9ccczC-103" edge="1">
          <mxGeometry relative="1" as="geometry">
            <Array as="points">
              <mxPoint x="-2013" y="510" />
              <mxPoint x="-1728" y="510" />
            </Array>
          </mxGeometry>
        </mxCell>
        <mxCell id="n_CAfEEjPnqXCp9ccczC-85" value="&lt;font style=&quot;font-size: 17px;&quot;&gt;&quot;3- CÃES DE GRANDE PORTE&lt;br&gt;1 - Deli Dog&lt;br&gt;2 - Royal Canin&lt;br&gt;3 - Biriba&quot;&lt;/font&gt;" style="rounded=0;whiteSpace=wrap;html=1;align=left;" parent="1" vertex="1">
          <mxGeometry x="-2143.5" y="350" width="256.5" height="121" as="geometry" />
        </mxCell>
        <mxCell id="utxzDUO19A-Ywpz3fy0E-30" style="edgeStyle=orthogonalEdgeStyle;rounded=0;orthogonalLoop=1;jettySize=auto;html=1;" parent="1" source="n_CAfEEjPnqXCp9ccczC-97" target="utxzDUO19A-Ywpz3fy0E-29" edge="1">
          <mxGeometry relative="1" as="geometry" />
        </mxCell>
        <mxCell id="n_CAfEEjPnqXCp9ccczC-97" value="&lt;div style=&quot;display: flex; justify-content: center; text-align: center; align-items: baseline; line-height: 1.25; margin-top: -2px; font-size: 17px;&quot;&gt;&lt;span style=&quot;color: rgb(51, 51, 51);&quot;&gt;&lt;font style=&quot;font-size: 17px;&quot;&gt;1 - Deli Dog&lt;br&gt;&lt;/font&gt;&lt;/span&gt;&lt;/div&gt;&lt;div style=&quot;display: flex; justify-content: flex-start; text-align: left; align-items: baseline; line-height: 1.25; margin-top: -2px; font-size: 17px;&quot;&gt;&lt;span style=&quot;color: rgb(51, 51, 51);&quot;&gt;&lt;font style=&quot;font-size: 17px;&quot;&gt;&quot;Insira o peso da embalagem: &quot;&lt;/font&gt;&lt;/span&gt;&lt;/div&gt;" style="html=1;overflow=block;blockSpacing=1;whiteSpace=wrap;fontSize=13;spacing=3.8;verticalAlign=middle;strokeColor=#5e5e5e;strokeOpacity=100;rounded=1;absoluteArcSize=1;arcSize=9;strokeWidth=2.3;lucidId=xadQSBDBNz_y;" parent="1" vertex="1">
          <mxGeometry x="-2454" y="540" width="270" height="60" as="geometry" />
        </mxCell>
        <mxCell id="n_CAfEEjPnqXCp9ccczC-168" style="edgeStyle=orthogonalEdgeStyle;rounded=0;orthogonalLoop=1;jettySize=auto;html=1;fontSize=17;" parent="1" source="n_CAfEEjPnqXCp9ccczC-98" target="n_CAfEEjPnqXCp9ccczC-161" edge="1">
          <mxGeometry relative="1" as="geometry">
            <Array as="points">
              <mxPoint x="-2320" y="850" />
              <mxPoint x="-1200" y="850" />
            </Array>
          </mxGeometry>
        </mxCell>
        <mxCell id="n_CAfEEjPnqXCp9ccczC-98" value="deli_dogG+=peso" style="html=1;overflow=block;blockSpacing=1;whiteSpace=wrap;shape=parallelogram;perimeter=parallelogramPerimeter;anchorPointDirection=0;fontSize=16.7;fontColor=#333333;spacing=3.8;strokeColor=#5e5e5e;strokeOpacity=100;rounded=1;absoluteArcSize=1;arcSize=9;strokeWidth=2.3;lucidId=UadQiRX_6uJ1;" parent="1" vertex="1">
          <mxGeometry x="-2413" y="760" width="188" height="45" as="geometry" />
        </mxCell>
        <mxCell id="utxzDUO19A-Ywpz3fy0E-33" style="edgeStyle=orthogonalEdgeStyle;rounded=0;orthogonalLoop=1;jettySize=auto;html=1;" parent="1" source="n_CAfEEjPnqXCp9ccczC-100" target="utxzDUO19A-Ywpz3fy0E-32" edge="1">
          <mxGeometry relative="1" as="geometry">
            <Array as="points">
              <mxPoint x="-2019" y="640" />
              <mxPoint x="-2019" y="640" />
            </Array>
          </mxGeometry>
        </mxCell>
        <mxCell id="n_CAfEEjPnqXCp9ccczC-100" value="&lt;div style=&quot;display: flex; justify-content: center; text-align: center; align-items: baseline; line-height: 1.25; margin-top: -2px; font-size: 17px;&quot;&gt;&lt;span style=&quot;color: rgb(51, 51, 51);&quot;&gt;&lt;font style=&quot;font-size: 17px;&quot;&gt;2 - Royal Canin&lt;br&gt;&lt;/font&gt;&lt;/span&gt;&lt;/div&gt;&lt;div style=&quot;display: flex; justify-content: flex-start; text-align: left; align-items: baseline; line-height: 1.25; margin-top: -2px; font-size: 17px;&quot;&gt;&lt;span style=&quot;color: rgb(51, 51, 51);&quot;&gt;&lt;font style=&quot;font-size: 17px;&quot;&gt;&quot;Insira o peso da embalagem: &quot;&lt;/font&gt;&lt;/span&gt;&lt;/div&gt;" style="html=1;overflow=block;blockSpacing=1;whiteSpace=wrap;fontSize=13;spacing=3.8;verticalAlign=middle;strokeColor=#5e5e5e;strokeOpacity=100;rounded=1;absoluteArcSize=1;arcSize=9;strokeWidth=2.3;lucidId=cbdQ5c1NGJHm;" parent="1" vertex="1">
          <mxGeometry x="-2154" y="540" width="270" height="60" as="geometry" />
        </mxCell>
        <mxCell id="n_CAfEEjPnqXCp9ccczC-169" style="edgeStyle=orthogonalEdgeStyle;rounded=0;orthogonalLoop=1;jettySize=auto;html=1;fontSize=17;" parent="1" source="n_CAfEEjPnqXCp9ccczC-101" target="n_CAfEEjPnqXCp9ccczC-161" edge="1">
          <mxGeometry relative="1" as="geometry">
            <Array as="points">
              <mxPoint x="-2030" y="850" />
              <mxPoint x="-1200" y="850" />
            </Array>
          </mxGeometry>
        </mxCell>
        <mxCell id="n_CAfEEjPnqXCp9ccczC-101" value="royal_caninG+=peso" style="html=1;overflow=block;blockSpacing=1;whiteSpace=wrap;shape=parallelogram;perimeter=parallelogramPerimeter;anchorPointDirection=0;fontSize=16.7;fontColor=#333333;spacing=3.8;strokeColor=#5e5e5e;strokeOpacity=100;rounded=1;absoluteArcSize=1;arcSize=9;strokeWidth=2.3;lucidId=mbdQr2BaEsjg;" parent="1" vertex="1">
          <mxGeometry x="-2125.5" y="760" width="203" height="45" as="geometry" />
        </mxCell>
        <mxCell id="utxzDUO19A-Ywpz3fy0E-37" style="edgeStyle=orthogonalEdgeStyle;rounded=0;orthogonalLoop=1;jettySize=auto;html=1;entryX=0.466;entryY=0.002;entryDx=0;entryDy=0;entryPerimeter=0;" parent="1" source="n_CAfEEjPnqXCp9ccczC-103" target="utxzDUO19A-Ywpz3fy0E-35" edge="1">
          <mxGeometry relative="1" as="geometry" />
        </mxCell>
        <mxCell id="n_CAfEEjPnqXCp9ccczC-103" value="&lt;div style=&quot;display: flex; justify-content: center; text-align: center; align-items: baseline; line-height: 1.25; margin-top: -2px; font-size: 17px;&quot;&gt;&lt;span style=&quot;color: rgb(51, 51, 51);&quot;&gt;&lt;font style=&quot;font-size: 17px;&quot;&gt;3 - Biriba&lt;br&gt;&lt;/font&gt;&lt;/span&gt;&lt;/div&gt;&lt;div style=&quot;display: flex; justify-content: flex-start; text-align: left; align-items: baseline; line-height: 1.25; margin-top: -2px; font-size: 17px;&quot;&gt;&lt;span style=&quot;color: rgb(51, 51, 51);&quot;&gt;&lt;font style=&quot;font-size: 17px;&quot;&gt;&quot;Insira o peso da embalagem: &quot;&lt;/font&gt;&lt;/span&gt;&lt;/div&gt;" style="html=1;overflow=block;blockSpacing=1;whiteSpace=wrap;fontSize=13;spacing=3.8;verticalAlign=middle;strokeColor=#5e5e5e;strokeOpacity=100;rounded=1;absoluteArcSize=1;arcSize=9;strokeWidth=2.3;lucidId=4cdQdU3FvhKV;" parent="1" vertex="1">
          <mxGeometry x="-1854" y="540" width="253" height="60" as="geometry" />
        </mxCell>
        <mxCell id="n_CAfEEjPnqXCp9ccczC-170" style="edgeStyle=orthogonalEdgeStyle;rounded=0;orthogonalLoop=1;jettySize=auto;html=1;fontSize=17;" parent="1" source="n_CAfEEjPnqXCp9ccczC-104" target="n_CAfEEjPnqXCp9ccczC-161" edge="1">
          <mxGeometry relative="1" as="geometry">
            <Array as="points">
              <mxPoint x="-1741" y="850" />
              <mxPoint x="-1200" y="850" />
            </Array>
          </mxGeometry>
        </mxCell>
        <mxCell id="n_CAfEEjPnqXCp9ccczC-104" value="biribaG+=peso" style="html=1;overflow=block;blockSpacing=1;whiteSpace=wrap;shape=parallelogram;perimeter=parallelogramPerimeter;anchorPointDirection=0;fontSize=16.7;fontColor=#333333;spacing=3.8;strokeColor=#5e5e5e;strokeOpacity=100;rounded=1;absoluteArcSize=1;arcSize=9;strokeWidth=2.3;lucidId=-cdQnatChh5n;" parent="1" vertex="1">
          <mxGeometry x="-1819" y="760" width="165" height="45" as="geometry" />
        </mxCell>
        <mxCell id="n_CAfEEjPnqXCp9ccczC-121" style="edgeStyle=orthogonalEdgeStyle;rounded=0;orthogonalLoop=1;jettySize=auto;html=1;entryX=0.542;entryY=0.01;entryDx=0;entryDy=0;entryPerimeter=0;fontSize=17;" parent="1" source="n_CAfEEjPnqXCp9ccczC-109" target="n_CAfEEjPnqXCp9ccczC-110" edge="1">
          <mxGeometry relative="1" as="geometry" />
        </mxCell>
        <mxCell id="n_CAfEEjPnqXCp9ccczC-109" value="&lt;div style=&quot;display: flex; justify-content: center; text-align: center; align-items: baseline; line-height: 1.25; margin-top: -2px; font-size: 17px;&quot;&gt;&lt;span style=&quot;color: rgb(51, 51, 51);&quot;&gt;&lt;font style=&quot;font-size: 17px;&quot;&gt;1 - Whiskas&lt;br&gt;&lt;/font&gt;&lt;/span&gt;&lt;/div&gt;&lt;div style=&quot;display: flex; justify-content: flex-start; text-align: left; align-items: baseline; line-height: 1.25; margin-top: -2px; font-size: 17px;&quot;&gt;&lt;span style=&quot;color: rgb(51, 51, 51);&quot;&gt;&lt;font style=&quot;font-size: 17px;&quot;&gt;&quot;Insira o peso da embalagem: &quot;&lt;/font&gt;&lt;/span&gt;&lt;/div&gt;" style="html=1;overflow=block;blockSpacing=1;whiteSpace=wrap;fontSize=13;spacing=3.8;verticalAlign=middle;strokeColor=#5e5e5e;strokeOpacity=100;rounded=1;absoluteArcSize=1;arcSize=9;strokeWidth=2.3;lucidId=E8cQUUa6jlSK;" parent="1" vertex="1">
          <mxGeometry x="-480" y="80" width="270" height="60" as="geometry" />
        </mxCell>
        <mxCell id="n_CAfEEjPnqXCp9ccczC-110" value="whiskasF+=peso" style="html=1;overflow=block;blockSpacing=1;whiteSpace=wrap;shape=parallelogram;perimeter=parallelogramPerimeter;anchorPointDirection=0;fontSize=16.7;fontColor=#333333;spacing=3.8;strokeColor=#5e5e5e;strokeOpacity=100;rounded=1;absoluteArcSize=1;arcSize=9;strokeWidth=2.3;lucidId=o_cQYN_FLAkT;" parent="1" vertex="1">
          <mxGeometry x="-440" y="185" width="176" height="45" as="geometry" />
        </mxCell>
        <mxCell id="n_CAfEEjPnqXCp9ccczC-125" style="edgeStyle=orthogonalEdgeStyle;rounded=0;orthogonalLoop=1;jettySize=auto;html=1;entryX=0;entryY=0.5;entryDx=0;entryDy=0;fontSize=17;" parent="1" source="n_CAfEEjPnqXCp9ccczC-113" target="n_CAfEEjPnqXCp9ccczC-109" edge="1">
          <mxGeometry relative="1" as="geometry">
            <Array as="points">
              <mxPoint x="-530" y="-55" />
              <mxPoint x="-530" y="110" />
            </Array>
          </mxGeometry>
        </mxCell>
        <mxCell id="n_CAfEEjPnqXCp9ccczC-126" style="edgeStyle=orthogonalEdgeStyle;rounded=0;orthogonalLoop=1;jettySize=auto;html=1;entryX=0;entryY=0.5;entryDx=0;entryDy=0;fontSize=17;" parent="1" source="n_CAfEEjPnqXCp9ccczC-113" target="n_CAfEEjPnqXCp9ccczC-123" edge="1">
          <mxGeometry relative="1" as="geometry">
            <Array as="points">
              <mxPoint x="-530" y="-55" />
              <mxPoint x="-530" y="330" />
            </Array>
          </mxGeometry>
        </mxCell>
        <mxCell id="n_CAfEEjPnqXCp9ccczC-131" style="edgeStyle=orthogonalEdgeStyle;rounded=0;orthogonalLoop=1;jettySize=auto;html=1;entryX=0;entryY=0.426;entryDx=0;entryDy=0;fontSize=17;entryPerimeter=0;" parent="1" source="n_CAfEEjPnqXCp9ccczC-113" target="n_CAfEEjPnqXCp9ccczC-129" edge="1">
          <mxGeometry relative="1" as="geometry">
            <Array as="points">
              <mxPoint x="-530" y="-55" />
              <mxPoint x="-530" y="620" />
            </Array>
          </mxGeometry>
        </mxCell>
        <mxCell id="n_CAfEEjPnqXCp9ccczC-113" value="&quot;1- GATOS FILHOTES&quot;&lt;br&gt;&lt;div style=&quot;text-align: left;&quot;&gt;&lt;span style=&quot;background-color: initial;&quot;&gt;&quot;Marca da Ração:&lt;/span&gt;&lt;/div&gt;&lt;div style=&quot;text-align: left;&quot;&gt;&lt;span style=&quot;background-color: initial;&quot;&gt;1 - Whiskas&lt;/span&gt;&lt;/div&gt;&lt;div style=&quot;text-align: left;&quot;&gt;&lt;span style=&quot;background-color: initial;&quot;&gt;2 - Friskies&lt;/span&gt;&lt;/div&gt;&lt;div style=&quot;text-align: left;&quot;&gt;&lt;span style=&quot;background-color: initial;&quot;&gt;3 - Premier&lt;/span&gt;&lt;/div&gt;" style="rounded=0;whiteSpace=wrap;html=1;fontSize=17;" parent="1" vertex="1">
          <mxGeometry x="-430" y="-110" width="220" height="110" as="geometry" />
        </mxCell>
        <mxCell id="n_CAfEEjPnqXCp9ccczC-141" style="edgeStyle=orthogonalEdgeStyle;rounded=0;orthogonalLoop=1;jettySize=auto;html=1;fontSize=17;" parent="1" source="n_CAfEEjPnqXCp9ccczC-114" target="n_CAfEEjPnqXCp9ccczC-133" edge="1">
          <mxGeometry relative="1" as="geometry">
            <Array as="points">
              <mxPoint x="-190" y="-55" />
              <mxPoint x="-190" y="110" />
            </Array>
          </mxGeometry>
        </mxCell>
        <mxCell id="n_CAfEEjPnqXCp9ccczC-142" style="edgeStyle=orthogonalEdgeStyle;rounded=0;orthogonalLoop=1;jettySize=auto;html=1;entryX=0;entryY=0.5;entryDx=0;entryDy=0;fontSize=17;" parent="1" source="n_CAfEEjPnqXCp9ccczC-114" target="n_CAfEEjPnqXCp9ccczC-136" edge="1">
          <mxGeometry relative="1" as="geometry">
            <Array as="points">
              <mxPoint x="-190" y="-55" />
              <mxPoint x="-190" y="330" />
            </Array>
          </mxGeometry>
        </mxCell>
        <mxCell id="n_CAfEEjPnqXCp9ccczC-143" style="edgeStyle=orthogonalEdgeStyle;rounded=0;orthogonalLoop=1;jettySize=auto;html=1;entryX=0;entryY=0.447;entryDx=0;entryDy=0;fontSize=17;entryPerimeter=0;" parent="1" source="n_CAfEEjPnqXCp9ccczC-114" target="n_CAfEEjPnqXCp9ccczC-139" edge="1">
          <mxGeometry relative="1" as="geometry">
            <Array as="points">
              <mxPoint x="-190" y="-55" />
              <mxPoint x="-190" y="620" />
              <mxPoint x="-130" y="620" />
            </Array>
          </mxGeometry>
        </mxCell>
        <mxCell id="n_CAfEEjPnqXCp9ccczC-114" value="&quot;2- GATOS ADULTOS&quot;&lt;br&gt;&lt;div style=&quot;text-align: left;&quot;&gt;&lt;span style=&quot;background-color: initial;&quot;&gt;&quot;Marca da Ração:&lt;/span&gt;&lt;/div&gt;&lt;div style=&quot;text-align: left;&quot;&gt;&lt;span style=&quot;background-color: initial;&quot;&gt;1 - Whiskas&lt;/span&gt;&lt;/div&gt;&lt;div style=&quot;text-align: left;&quot;&gt;&lt;span style=&quot;background-color: initial;&quot;&gt;2 - Friskies&lt;/span&gt;&lt;/div&gt;&lt;div style=&quot;text-align: left;&quot;&gt;&lt;span style=&quot;background-color: initial;&quot;&gt;3 - Premier&lt;/span&gt;&lt;/div&gt;" style="rounded=0;whiteSpace=wrap;html=1;fontSize=17;" parent="1" vertex="1">
          <mxGeometry x="-170" y="-110" width="220" height="110" as="geometry" />
        </mxCell>
        <mxCell id="n_CAfEEjPnqXCp9ccczC-153" style="edgeStyle=orthogonalEdgeStyle;rounded=0;orthogonalLoop=1;jettySize=auto;html=1;entryX=0;entryY=0.5;entryDx=0;entryDy=0;fontSize=17;" parent="1" source="n_CAfEEjPnqXCp9ccczC-115" target="n_CAfEEjPnqXCp9ccczC-145" edge="1">
          <mxGeometry relative="1" as="geometry">
            <Array as="points">
              <mxPoint x="170" y="110" />
            </Array>
          </mxGeometry>
        </mxCell>
        <mxCell id="n_CAfEEjPnqXCp9ccczC-154" style="edgeStyle=orthogonalEdgeStyle;rounded=0;orthogonalLoop=1;jettySize=auto;html=1;entryX=0;entryY=0.5;entryDx=0;entryDy=0;fontSize=17;" parent="1" source="n_CAfEEjPnqXCp9ccczC-115" target="n_CAfEEjPnqXCp9ccczC-148" edge="1">
          <mxGeometry relative="1" as="geometry">
            <Array as="points">
              <mxPoint x="170" y="330" />
            </Array>
          </mxGeometry>
        </mxCell>
        <mxCell id="n_CAfEEjPnqXCp9ccczC-155" style="edgeStyle=orthogonalEdgeStyle;rounded=0;orthogonalLoop=1;jettySize=auto;html=1;entryX=0;entryY=0.5;entryDx=0;entryDy=0;fontSize=17;" parent="1" source="n_CAfEEjPnqXCp9ccczC-115" target="n_CAfEEjPnqXCp9ccczC-151" edge="1">
          <mxGeometry relative="1" as="geometry">
            <Array as="points">
              <mxPoint x="170" y="624" />
            </Array>
          </mxGeometry>
        </mxCell>
        <mxCell id="n_CAfEEjPnqXCp9ccczC-115" value="&quot;3- GATOS CASTRADOS&quot;&lt;br&gt;&lt;div style=&quot;text-align: left;&quot;&gt;&lt;span style=&quot;background-color: initial;&quot;&gt;&quot;Marca da Ração:&lt;/span&gt;&lt;/div&gt;&lt;div style=&quot;text-align: left;&quot;&gt;&lt;span style=&quot;background-color: initial;&quot;&gt;1 - Whiskas&lt;/span&gt;&lt;/div&gt;&lt;div style=&quot;text-align: left;&quot;&gt;&lt;span style=&quot;background-color: initial;&quot;&gt;2 - Friskies&lt;/span&gt;&lt;/div&gt;&lt;div style=&quot;text-align: left;&quot;&gt;&lt;span style=&quot;background-color: initial;&quot;&gt;3 - Premier&lt;/span&gt;&lt;/div&gt;" style="rounded=0;whiteSpace=wrap;html=1;fontSize=17;" parent="1" vertex="1">
          <mxGeometry x="90" y="-110" width="220" height="110" as="geometry" />
        </mxCell>
        <mxCell id="utxzDUO19A-Ywpz3fy0E-4" style="edgeStyle=orthogonalEdgeStyle;rounded=0;orthogonalLoop=1;jettySize=auto;html=1;entryX=0.5;entryY=0;entryDx=0;entryDy=0;" parent="1" source="n_CAfEEjPnqXCp9ccczC-123" target="utxzDUO19A-Ywpz3fy0E-2" edge="1">
          <mxGeometry relative="1" as="geometry" />
        </mxCell>
        <mxCell id="n_CAfEEjPnqXCp9ccczC-123" value="&lt;div style=&quot;display: flex; justify-content: center; text-align: center; align-items: baseline; line-height: 1.25; margin-top: -2px; font-size: 17px;&quot;&gt;&lt;span style=&quot;color: rgb(51, 51, 51);&quot;&gt;&lt;font style=&quot;font-size: 17px;&quot;&gt;2 - Friskies&lt;br&gt;&lt;/font&gt;&lt;/span&gt;&lt;/div&gt;&lt;div style=&quot;display: flex; justify-content: flex-start; text-align: left; align-items: baseline; line-height: 1.25; margin-top: -2px; font-size: 17px;&quot;&gt;&lt;span style=&quot;color: rgb(51, 51, 51);&quot;&gt;&lt;font style=&quot;font-size: 17px;&quot;&gt;&quot;Insira o peso da embalagem: &quot;&lt;/font&gt;&lt;/span&gt;&lt;/div&gt;" style="html=1;overflow=block;blockSpacing=1;whiteSpace=wrap;fontSize=13;spacing=3.8;verticalAlign=middle;strokeColor=#5e5e5e;strokeOpacity=100;rounded=1;absoluteArcSize=1;arcSize=9;strokeWidth=2.3;lucidId=E8cQUUa6jlSK;" parent="1" vertex="1">
          <mxGeometry x="-480" y="300" width="270" height="60" as="geometry" />
        </mxCell>
        <mxCell id="n_CAfEEjPnqXCp9ccczC-124" value="friskiesF+=peso" style="html=1;overflow=block;blockSpacing=1;whiteSpace=wrap;shape=parallelogram;perimeter=parallelogramPerimeter;anchorPointDirection=0;fontSize=16.7;fontColor=#333333;spacing=3.8;strokeColor=#5e5e5e;strokeOpacity=100;rounded=1;absoluteArcSize=1;arcSize=9;strokeWidth=2.3;lucidId=o_cQYN_FLAkT;" parent="1" vertex="1">
          <mxGeometry x="-440" y="510" width="176" height="45" as="geometry" />
        </mxCell>
        <mxCell id="n_CAfEEjPnqXCp9ccczC-128" style="edgeStyle=orthogonalEdgeStyle;rounded=0;orthogonalLoop=1;jettySize=auto;html=1;entryX=0.542;entryY=0.01;entryDx=0;entryDy=0;entryPerimeter=0;fontSize=17;" parent="1" source="n_CAfEEjPnqXCp9ccczC-129" target="n_CAfEEjPnqXCp9ccczC-130" edge="1">
          <mxGeometry relative="1" as="geometry" />
        </mxCell>
        <mxCell id="n_CAfEEjPnqXCp9ccczC-129" value="&lt;div style=&quot;display: flex; justify-content: center; text-align: center; align-items: baseline; line-height: 1.25; margin-top: -2px; font-size: 17px;&quot;&gt;&lt;span style=&quot;color: rgb(51, 51, 51);&quot;&gt;&lt;font style=&quot;font-size: 17px;&quot;&gt;3 - Premier&lt;br&gt;&lt;/font&gt;&lt;/span&gt;&lt;/div&gt;&lt;div style=&quot;display: flex; justify-content: flex-start; text-align: left; align-items: baseline; line-height: 1.25; margin-top: -2px; font-size: 17px;&quot;&gt;&lt;span style=&quot;color: rgb(51, 51, 51);&quot;&gt;&lt;font style=&quot;font-size: 17px;&quot;&gt;&quot;Insira o peso da embalagem: &quot;&lt;/font&gt;&lt;/span&gt;&lt;/div&gt;" style="html=1;overflow=block;blockSpacing=1;whiteSpace=wrap;fontSize=13;spacing=3.8;verticalAlign=middle;strokeColor=#5e5e5e;strokeOpacity=100;rounded=1;absoluteArcSize=1;arcSize=9;strokeWidth=2.3;lucidId=E8cQUUa6jlSK;" parent="1" vertex="1">
          <mxGeometry x="-487" y="594" width="270" height="60" as="geometry" />
        </mxCell>
        <mxCell id="n_CAfEEjPnqXCp9ccczC-275" style="edgeStyle=orthogonalEdgeStyle;rounded=0;orthogonalLoop=1;jettySize=auto;html=1;fontSize=17;" parent="1" source="n_CAfEEjPnqXCp9ccczC-130" target="n_CAfEEjPnqXCp9ccczC-211" edge="1">
          <mxGeometry relative="1" as="geometry">
            <Array as="points">
              <mxPoint x="-359" y="800" />
              <mxPoint y="800" />
            </Array>
          </mxGeometry>
        </mxCell>
        <mxCell id="n_CAfEEjPnqXCp9ccczC-130" value="premierF+=peso" style="html=1;overflow=block;blockSpacing=1;whiteSpace=wrap;shape=parallelogram;perimeter=parallelogramPerimeter;anchorPointDirection=0;fontSize=16.7;fontColor=#333333;spacing=3.8;strokeColor=#5e5e5e;strokeOpacity=100;rounded=1;absoluteArcSize=1;arcSize=9;strokeWidth=2.3;lucidId=o_cQYN_FLAkT;" parent="1" vertex="1">
          <mxGeometry x="-447" y="699" width="176" height="45" as="geometry" />
        </mxCell>
        <mxCell id="n_CAfEEjPnqXCp9ccczC-132" style="edgeStyle=orthogonalEdgeStyle;rounded=0;orthogonalLoop=1;jettySize=auto;html=1;entryX=0.542;entryY=0.01;entryDx=0;entryDy=0;entryPerimeter=0;fontSize=17;" parent="1" source="n_CAfEEjPnqXCp9ccczC-133" target="n_CAfEEjPnqXCp9ccczC-134" edge="1">
          <mxGeometry relative="1" as="geometry" />
        </mxCell>
        <mxCell id="n_CAfEEjPnqXCp9ccczC-133" value="&lt;div style=&quot;display: flex; justify-content: center; text-align: center; align-items: baseline; line-height: 1.25; margin-top: -2px; font-size: 17px;&quot;&gt;&lt;span style=&quot;color: rgb(51, 51, 51);&quot;&gt;&lt;font style=&quot;font-size: 17px;&quot;&gt;1 - Whiskas&lt;br&gt;&lt;/font&gt;&lt;/span&gt;&lt;/div&gt;&lt;div style=&quot;display: flex; justify-content: flex-start; text-align: left; align-items: baseline; line-height: 1.25; margin-top: -2px; font-size: 17px;&quot;&gt;&lt;span style=&quot;color: rgb(51, 51, 51);&quot;&gt;&lt;font style=&quot;font-size: 17px;&quot;&gt;&quot;Insira o peso da embalagem: &quot;&lt;/font&gt;&lt;/span&gt;&lt;/div&gt;" style="html=1;overflow=block;blockSpacing=1;whiteSpace=wrap;fontSize=13;spacing=3.8;verticalAlign=middle;strokeColor=#5e5e5e;strokeOpacity=100;rounded=1;absoluteArcSize=1;arcSize=9;strokeWidth=2.3;lucidId=E8cQUUa6jlSK;" parent="1" vertex="1">
          <mxGeometry x="-123" y="80" width="270" height="60" as="geometry" />
        </mxCell>
        <mxCell id="n_CAfEEjPnqXCp9ccczC-134" value="whiskasA+=peso" style="html=1;overflow=block;blockSpacing=1;whiteSpace=wrap;shape=parallelogram;perimeter=parallelogramPerimeter;anchorPointDirection=0;fontSize=16.7;fontColor=#333333;spacing=3.8;strokeColor=#5e5e5e;strokeOpacity=100;rounded=1;absoluteArcSize=1;arcSize=9;strokeWidth=2.3;lucidId=o_cQYN_FLAkT;" parent="1" vertex="1">
          <mxGeometry x="-83" y="185" width="176" height="45" as="geometry" />
        </mxCell>
        <mxCell id="utxzDUO19A-Ywpz3fy0E-6" style="edgeStyle=orthogonalEdgeStyle;rounded=0;orthogonalLoop=1;jettySize=auto;html=1;entryX=0.5;entryY=0;entryDx=0;entryDy=0;" parent="1" source="n_CAfEEjPnqXCp9ccczC-136" target="utxzDUO19A-Ywpz3fy0E-5" edge="1">
          <mxGeometry relative="1" as="geometry" />
        </mxCell>
        <mxCell id="n_CAfEEjPnqXCp9ccczC-136" value="&lt;div style=&quot;display: flex; justify-content: center; text-align: center; align-items: baseline; line-height: 1.25; margin-top: -2px; font-size: 17px;&quot;&gt;&lt;span style=&quot;color: rgb(51, 51, 51);&quot;&gt;&lt;font style=&quot;font-size: 17px;&quot;&gt;2 - Friskies&lt;br&gt;&lt;/font&gt;&lt;/span&gt;&lt;/div&gt;&lt;div style=&quot;display: flex; justify-content: flex-start; text-align: left; align-items: baseline; line-height: 1.25; margin-top: -2px; font-size: 17px;&quot;&gt;&lt;span style=&quot;color: rgb(51, 51, 51);&quot;&gt;&lt;font style=&quot;font-size: 17px;&quot;&gt;&quot;Insira o peso da embalagem: &quot;&lt;/font&gt;&lt;/span&gt;&lt;/div&gt;" style="html=1;overflow=block;blockSpacing=1;whiteSpace=wrap;fontSize=13;spacing=3.8;verticalAlign=middle;strokeColor=#5e5e5e;strokeOpacity=100;rounded=1;absoluteArcSize=1;arcSize=9;strokeWidth=2.3;lucidId=E8cQUUa6jlSK;" parent="1" vertex="1">
          <mxGeometry x="-123" y="300" width="270" height="60" as="geometry" />
        </mxCell>
        <mxCell id="n_CAfEEjPnqXCp9ccczC-137" value="friskiesA+=peso" style="html=1;overflow=block;blockSpacing=1;whiteSpace=wrap;shape=parallelogram;perimeter=parallelogramPerimeter;anchorPointDirection=0;fontSize=16.7;fontColor=#333333;spacing=3.8;strokeColor=#5e5e5e;strokeOpacity=100;rounded=1;absoluteArcSize=1;arcSize=9;strokeWidth=2.3;lucidId=o_cQYN_FLAkT;" parent="1" vertex="1">
          <mxGeometry x="-83" y="510" width="176" height="45" as="geometry" />
        </mxCell>
        <mxCell id="n_CAfEEjPnqXCp9ccczC-138" style="edgeStyle=orthogonalEdgeStyle;rounded=0;orthogonalLoop=1;jettySize=auto;html=1;entryX=0.542;entryY=0.01;entryDx=0;entryDy=0;entryPerimeter=0;fontSize=17;" parent="1" source="n_CAfEEjPnqXCp9ccczC-139" target="n_CAfEEjPnqXCp9ccczC-140" edge="1">
          <mxGeometry relative="1" as="geometry" />
        </mxCell>
        <mxCell id="n_CAfEEjPnqXCp9ccczC-139" value="&lt;div style=&quot;display: flex; justify-content: center; text-align: center; align-items: baseline; line-height: 1.25; margin-top: -2px; font-size: 17px;&quot;&gt;&lt;span style=&quot;color: rgb(51, 51, 51);&quot;&gt;&lt;font style=&quot;font-size: 17px;&quot;&gt;3 - Premier&lt;br&gt;&lt;/font&gt;&lt;/span&gt;&lt;/div&gt;&lt;div style=&quot;display: flex; justify-content: flex-start; text-align: left; align-items: baseline; line-height: 1.25; margin-top: -2px; font-size: 17px;&quot;&gt;&lt;span style=&quot;color: rgb(51, 51, 51);&quot;&gt;&lt;font style=&quot;font-size: 17px;&quot;&gt;&quot;Insira o peso da embalagem: &quot;&lt;/font&gt;&lt;/span&gt;&lt;/div&gt;" style="html=1;overflow=block;blockSpacing=1;whiteSpace=wrap;fontSize=13;spacing=3.8;verticalAlign=middle;strokeColor=#5e5e5e;strokeOpacity=100;rounded=1;absoluteArcSize=1;arcSize=9;strokeWidth=2.3;lucidId=E8cQUUa6jlSK;" parent="1" vertex="1">
          <mxGeometry x="-130" y="594" width="270" height="60" as="geometry" />
        </mxCell>
        <mxCell id="n_CAfEEjPnqXCp9ccczC-276" style="edgeStyle=orthogonalEdgeStyle;rounded=0;orthogonalLoop=1;jettySize=auto;html=1;fontSize=17;" parent="1" source="n_CAfEEjPnqXCp9ccczC-140" target="n_CAfEEjPnqXCp9ccczC-211" edge="1">
          <mxGeometry relative="1" as="geometry">
            <Array as="points">
              <mxPoint y="810" />
              <mxPoint y="810" />
            </Array>
          </mxGeometry>
        </mxCell>
        <mxCell id="n_CAfEEjPnqXCp9ccczC-140" value="premierA+=peso" style="html=1;overflow=block;blockSpacing=1;whiteSpace=wrap;shape=parallelogram;perimeter=parallelogramPerimeter;anchorPointDirection=0;fontSize=16.7;fontColor=#333333;spacing=3.8;strokeColor=#5e5e5e;strokeOpacity=100;rounded=1;absoluteArcSize=1;arcSize=9;strokeWidth=2.3;lucidId=o_cQYN_FLAkT;" parent="1" vertex="1">
          <mxGeometry x="-90" y="699" width="176" height="45" as="geometry" />
        </mxCell>
        <mxCell id="n_CAfEEjPnqXCp9ccczC-144" style="edgeStyle=orthogonalEdgeStyle;rounded=0;orthogonalLoop=1;jettySize=auto;html=1;entryX=0.542;entryY=0.01;entryDx=0;entryDy=0;entryPerimeter=0;fontSize=17;" parent="1" source="n_CAfEEjPnqXCp9ccczC-145" target="n_CAfEEjPnqXCp9ccczC-146" edge="1">
          <mxGeometry relative="1" as="geometry" />
        </mxCell>
        <mxCell id="n_CAfEEjPnqXCp9ccczC-145" value="&lt;div style=&quot;display: flex; justify-content: center; text-align: center; align-items: baseline; line-height: 1.25; margin-top: -2px; font-size: 17px;&quot;&gt;&lt;span style=&quot;color: rgb(51, 51, 51);&quot;&gt;&lt;font style=&quot;font-size: 17px;&quot;&gt;1 - Whiskas&lt;br&gt;&lt;/font&gt;&lt;/span&gt;&lt;/div&gt;&lt;div style=&quot;display: flex; justify-content: flex-start; text-align: left; align-items: baseline; line-height: 1.25; margin-top: -2px; font-size: 17px;&quot;&gt;&lt;span style=&quot;color: rgb(51, 51, 51);&quot;&gt;&lt;font style=&quot;font-size: 17px;&quot;&gt;&quot;Insira o peso da embalagem: &quot;&lt;/font&gt;&lt;/span&gt;&lt;/div&gt;" style="html=1;overflow=block;blockSpacing=1;whiteSpace=wrap;fontSize=13;spacing=3.8;verticalAlign=middle;strokeColor=#5e5e5e;strokeOpacity=100;rounded=1;absoluteArcSize=1;arcSize=9;strokeWidth=2.3;lucidId=E8cQUUa6jlSK;" parent="1" vertex="1">
          <mxGeometry x="217" y="80" width="270" height="60" as="geometry" />
        </mxCell>
        <mxCell id="n_CAfEEjPnqXCp9ccczC-146" value="whiskasC+=peso" style="html=1;overflow=block;blockSpacing=1;whiteSpace=wrap;shape=parallelogram;perimeter=parallelogramPerimeter;anchorPointDirection=0;fontSize=16.7;fontColor=#333333;spacing=3.8;strokeColor=#5e5e5e;strokeOpacity=100;rounded=1;absoluteArcSize=1;arcSize=9;strokeWidth=2.3;lucidId=o_cQYN_FLAkT;" parent="1" vertex="1">
          <mxGeometry x="257" y="185" width="176" height="45" as="geometry" />
        </mxCell>
        <mxCell id="utxzDUO19A-Ywpz3fy0E-9" style="edgeStyle=orthogonalEdgeStyle;rounded=0;orthogonalLoop=1;jettySize=auto;html=1;entryX=0.5;entryY=0;entryDx=0;entryDy=0;" parent="1" source="n_CAfEEjPnqXCp9ccczC-148" target="utxzDUO19A-Ywpz3fy0E-8" edge="1">
          <mxGeometry relative="1" as="geometry" />
        </mxCell>
        <mxCell id="n_CAfEEjPnqXCp9ccczC-148" value="&lt;div style=&quot;display: flex; justify-content: center; text-align: center; align-items: baseline; line-height: 1.25; margin-top: -2px; font-size: 17px;&quot;&gt;&lt;span style=&quot;color: rgb(51, 51, 51);&quot;&gt;&lt;font style=&quot;font-size: 17px;&quot;&gt;2 - Friskies&lt;br&gt;&lt;/font&gt;&lt;/span&gt;&lt;/div&gt;&lt;div style=&quot;display: flex; justify-content: flex-start; text-align: left; align-items: baseline; line-height: 1.25; margin-top: -2px; font-size: 17px;&quot;&gt;&lt;span style=&quot;color: rgb(51, 51, 51);&quot;&gt;&lt;font style=&quot;font-size: 17px;&quot;&gt;&quot;Insira o peso da embalagem: &quot;&lt;/font&gt;&lt;/span&gt;&lt;/div&gt;" style="html=1;overflow=block;blockSpacing=1;whiteSpace=wrap;fontSize=13;spacing=3.8;verticalAlign=middle;strokeColor=#5e5e5e;strokeOpacity=100;rounded=1;absoluteArcSize=1;arcSize=9;strokeWidth=2.3;lucidId=E8cQUUa6jlSK;" parent="1" vertex="1">
          <mxGeometry x="217" y="300" width="270" height="60" as="geometry" />
        </mxCell>
        <mxCell id="n_CAfEEjPnqXCp9ccczC-149" value="friskiesC+=peso" style="html=1;overflow=block;blockSpacing=1;whiteSpace=wrap;shape=parallelogram;perimeter=parallelogramPerimeter;anchorPointDirection=0;fontSize=16.7;fontColor=#333333;spacing=3.8;strokeColor=#5e5e5e;strokeOpacity=100;rounded=1;absoluteArcSize=1;arcSize=9;strokeWidth=2.3;lucidId=o_cQYN_FLAkT;" parent="1" vertex="1">
          <mxGeometry x="257" y="510" width="176" height="45" as="geometry" />
        </mxCell>
        <mxCell id="n_CAfEEjPnqXCp9ccczC-150" style="edgeStyle=orthogonalEdgeStyle;rounded=0;orthogonalLoop=1;jettySize=auto;html=1;entryX=0.542;entryY=0.01;entryDx=0;entryDy=0;entryPerimeter=0;fontSize=17;" parent="1" source="n_CAfEEjPnqXCp9ccczC-151" target="n_CAfEEjPnqXCp9ccczC-152" edge="1">
          <mxGeometry relative="1" as="geometry" />
        </mxCell>
        <mxCell id="n_CAfEEjPnqXCp9ccczC-151" value="&lt;div style=&quot;display: flex; justify-content: center; text-align: center; align-items: baseline; line-height: 1.25; margin-top: -2px; font-size: 17px;&quot;&gt;&lt;span style=&quot;color: rgb(51, 51, 51);&quot;&gt;&lt;font style=&quot;font-size: 17px;&quot;&gt;3 - Premier&lt;br&gt;&lt;/font&gt;&lt;/span&gt;&lt;/div&gt;&lt;div style=&quot;display: flex; justify-content: flex-start; text-align: left; align-items: baseline; line-height: 1.25; margin-top: -2px; font-size: 17px;&quot;&gt;&lt;span style=&quot;color: rgb(51, 51, 51);&quot;&gt;&lt;font style=&quot;font-size: 17px;&quot;&gt;&quot;Insira o peso da embalagem: &quot;&lt;/font&gt;&lt;/span&gt;&lt;/div&gt;" style="html=1;overflow=block;blockSpacing=1;whiteSpace=wrap;fontSize=13;spacing=3.8;verticalAlign=middle;strokeColor=#5e5e5e;strokeOpacity=100;rounded=1;absoluteArcSize=1;arcSize=9;strokeWidth=2.3;lucidId=E8cQUUa6jlSK;" parent="1" vertex="1">
          <mxGeometry x="210" y="594" width="270" height="60" as="geometry" />
        </mxCell>
        <mxCell id="n_CAfEEjPnqXCp9ccczC-277" style="edgeStyle=orthogonalEdgeStyle;rounded=0;orthogonalLoop=1;jettySize=auto;html=1;fontSize=17;" parent="1" source="n_CAfEEjPnqXCp9ccczC-152" target="n_CAfEEjPnqXCp9ccczC-211" edge="1">
          <mxGeometry relative="1" as="geometry">
            <Array as="points">
              <mxPoint x="338" y="800" />
              <mxPoint y="800" />
            </Array>
          </mxGeometry>
        </mxCell>
        <mxCell id="n_CAfEEjPnqXCp9ccczC-152" value="premierC+=peso" style="html=1;overflow=block;blockSpacing=1;whiteSpace=wrap;shape=parallelogram;perimeter=parallelogramPerimeter;anchorPointDirection=0;fontSize=16.7;fontColor=#333333;spacing=3.8;strokeColor=#5e5e5e;strokeOpacity=100;rounded=1;absoluteArcSize=1;arcSize=9;strokeWidth=2.3;lucidId=o_cQYN_FLAkT;" parent="1" vertex="1">
          <mxGeometry x="250" y="699" width="176" height="45" as="geometry" />
        </mxCell>
        <mxCell id="n_CAfEEjPnqXCp9ccczC-212" style="edgeStyle=orthogonalEdgeStyle;rounded=0;orthogonalLoop=1;jettySize=auto;html=1;fontSize=17;exitX=0.5;exitY=1;exitDx=0;exitDy=0;" parent="1" source="n_CAfEEjPnqXCp9ccczC-265" target="n_CAfEEjPnqXCp9ccczC-185" edge="1">
          <mxGeometry relative="1" as="geometry">
            <mxPoint x="-1555" y="1174" as="sourcePoint" />
            <Array as="points">
              <mxPoint x="-1555" y="1160" />
              <mxPoint x="-1555" y="1460" />
              <mxPoint x="-575" y="1460" />
            </Array>
          </mxGeometry>
        </mxCell>
        <mxCell id="n_CAfEEjPnqXCp9ccczC-213" style="edgeStyle=orthogonalEdgeStyle;rounded=0;orthogonalLoop=1;jettySize=auto;html=1;fontSize=17;exitX=0.5;exitY=1;exitDx=0;exitDy=0;" parent="1" source="n_CAfEEjPnqXCp9ccczC-267" edge="1">
          <mxGeometry relative="1" as="geometry">
            <mxPoint x="-1205" y="1254" as="sourcePoint" />
            <mxPoint x="-575" y="1570" as="targetPoint" />
            <Array as="points">
              <mxPoint x="-1203" y="1460" />
              <mxPoint x="-575" y="1460" />
            </Array>
          </mxGeometry>
        </mxCell>
        <mxCell id="n_CAfEEjPnqXCp9ccczC-165" style="edgeStyle=orthogonalEdgeStyle;rounded=0;orthogonalLoop=1;jettySize=auto;html=1;fontSize=17;" parent="1" source="n_CAfEEjPnqXCp9ccczC-161" target="n_CAfEEjPnqXCp9ccczC-265" edge="1">
          <mxGeometry relative="1" as="geometry">
            <mxPoint x="-1555" y="1010" as="targetPoint" />
          </mxGeometry>
        </mxCell>
        <mxCell id="n_CAfEEjPnqXCp9ccczC-167" style="edgeStyle=orthogonalEdgeStyle;rounded=0;orthogonalLoop=1;jettySize=auto;html=1;fontSize=17;entryX=0.539;entryY=0.001;entryDx=0;entryDy=0;entryPerimeter=0;" parent="1" source="n_CAfEEjPnqXCp9ccczC-161" target="n_CAfEEjPnqXCp9ccczC-269" edge="1">
          <mxGeometry relative="1" as="geometry">
            <mxPoint x="-771" y="1010" as="targetPoint" />
          </mxGeometry>
        </mxCell>
        <mxCell id="n_CAfEEjPnqXCp9ccczC-268" style="edgeStyle=orthogonalEdgeStyle;rounded=0;orthogonalLoop=1;jettySize=auto;html=1;entryX=0.533;entryY=0.001;entryDx=0;entryDy=0;entryPerimeter=0;fontSize=17;" parent="1" source="n_CAfEEjPnqXCp9ccczC-161" target="n_CAfEEjPnqXCp9ccczC-267" edge="1">
          <mxGeometry relative="1" as="geometry">
            <Array as="points">
              <mxPoint x="-1193" y="995" />
            </Array>
          </mxGeometry>
        </mxCell>
        <mxCell id="n_CAfEEjPnqXCp9ccczC-161" value="Armazena os dados" style="shape=parallelogram;perimeter=parallelogramPerimeter;whiteSpace=wrap;html=1;fixedSize=1;fontSize=17;" parent="1" vertex="1">
          <mxGeometry x="-1269.5" y="890" width="148" height="80" as="geometry" />
        </mxCell>
        <mxCell id="n_CAfEEjPnqXCp9ccczC-189" style="edgeStyle=orthogonalEdgeStyle;rounded=0;orthogonalLoop=1;jettySize=auto;html=1;fontSize=17;" parent="1" source="n_CAfEEjPnqXCp9ccczC-185" target="n_CAfEEjPnqXCp9ccczC-1" edge="1">
          <mxGeometry relative="1" as="geometry">
            <Array as="points">
              <mxPoint x="1500" y="1597" />
              <mxPoint x="1500" y="-922" />
            </Array>
          </mxGeometry>
        </mxCell>
        <mxCell id="n_CAfEEjPnqXCp9ccczC-191" value="Sim" style="edgeLabel;html=1;align=center;verticalAlign=middle;resizable=0;points=[];fontSize=17;" parent="n_CAfEEjPnqXCp9ccczC-189" vertex="1" connectable="0">
          <mxGeometry x="-0.9637" y="1" relative="1" as="geometry">
            <mxPoint as="offset" />
          </mxGeometry>
        </mxCell>
        <mxCell id="n_CAfEEjPnqXCp9ccczC-185" value="&quot;Consultar novamente? (S/N)&quot;" style="html=1;overflow=block;blockSpacing=1;whiteSpace=wrap;rhombus;fontSize=16.7;fontColor=#333333;spacing=3.8;strokeColor=#5e5e5e;strokeOpacity=100;rounded=1;absoluteArcSize=1;arcSize=9;strokeWidth=2.3;lucidId=nUcQ-_NO7yt8;" parent="1" vertex="1">
          <mxGeometry x="-680" y="1502" width="210" height="190" as="geometry" />
        </mxCell>
        <mxCell id="n_CAfEEjPnqXCp9ccczC-186" value="Encerra o Programa" style="html=1;overflow=block;blockSpacing=1;whiteSpace=wrap;shape=parallelogram;perimeter=parallelogramPerimeter;anchorPointDirection=0;fontSize=16.7;fontColor=#333333;spacing=3.8;strokeColor=#5e5e5e;strokeOpacity=100;rounded=1;absoluteArcSize=1;arcSize=9;strokeWidth=2.3;lucidId=8WcQGbLYmC0B;" parent="1" vertex="1">
          <mxGeometry x="-635" y="1780" width="120" height="90" as="geometry" />
        </mxCell>
        <mxCell id="n_CAfEEjPnqXCp9ccczC-187" value="" style="html=1;jettySize=18;whiteSpace=wrap;overflow=block;blockSpacing=1;fontSize=13;strokeColor=#5E5E5E;strokeWidth=1.5;rounded=1;arcSize=12;edgeStyle=orthogonalEdgeStyle;startArrow=none;endArrow=block;endFill=1;exitX=0.5;exitY=0.996;exitPerimeter=0;entryX=0.5;entryY=-0.012;entryPerimeter=0;lucidId=FXcQ63sO.00J;" parent="1" source="n_CAfEEjPnqXCp9ccczC-185" target="n_CAfEEjPnqXCp9ccczC-186" edge="1">
          <mxGeometry width="100" height="100" relative="1" as="geometry">
            <Array as="points" />
          </mxGeometry>
        </mxCell>
        <mxCell id="n_CAfEEjPnqXCp9ccczC-188" value="Não" style="text;html=1;resizable=0;labelBackgroundColor=default;align=center;verticalAlign=middle;fontStyle=1;fontColor=#333333;fontSize=13.3;" parent="n_CAfEEjPnqXCp9ccczC-187" vertex="1">
          <mxGeometry relative="1" as="geometry" />
        </mxCell>
        <mxCell id="n_CAfEEjPnqXCp9ccczC-215" style="edgeStyle=orthogonalEdgeStyle;rounded=0;orthogonalLoop=1;jettySize=auto;html=1;entryX=0.5;entryY=0;entryDx=0;entryDy=0;fontSize=17;exitX=0.5;exitY=1;exitDx=0;exitDy=0;" parent="1" source="n_CAfEEjPnqXCp9ccczC-271" target="n_CAfEEjPnqXCp9ccczC-185" edge="1">
          <mxGeometry relative="1" as="geometry">
            <mxPoint x="-395" y="1174" as="sourcePoint" />
            <Array as="points">
              <mxPoint x="-395" y="1140" />
              <mxPoint x="-395" y="1460" />
              <mxPoint x="-575" y="1460" />
            </Array>
          </mxGeometry>
        </mxCell>
        <mxCell id="n_CAfEEjPnqXCp9ccczC-216" style="edgeStyle=orthogonalEdgeStyle;rounded=0;orthogonalLoop=1;jettySize=auto;html=1;entryX=0.5;entryY=0;entryDx=0;entryDy=0;fontSize=17;" parent="1" source="n_CAfEEjPnqXCp9ccczC-272" target="n_CAfEEjPnqXCp9ccczC-185" edge="1">
          <mxGeometry relative="1" as="geometry">
            <mxPoint x="-45" y="1254" as="sourcePoint" />
            <Array as="points">
              <mxPoint x="-45" y="1460" />
              <mxPoint x="-575" y="1460" />
            </Array>
          </mxGeometry>
        </mxCell>
        <mxCell id="n_CAfEEjPnqXCp9ccczC-217" style="edgeStyle=orthogonalEdgeStyle;rounded=0;orthogonalLoop=1;jettySize=auto;html=1;entryX=0.5;entryY=0;entryDx=0;entryDy=0;fontSize=17;exitX=0.5;exitY=1;exitDx=0;exitDy=0;" parent="1" source="n_CAfEEjPnqXCp9ccczC-274" target="n_CAfEEjPnqXCp9ccczC-185" edge="1">
          <mxGeometry relative="1" as="geometry">
            <mxPoint x="389.0000000000009" y="1280.0000000000005" as="sourcePoint" />
            <Array as="points">
              <mxPoint x="389" y="1460" />
              <mxPoint x="-575" y="1460" />
            </Array>
          </mxGeometry>
        </mxCell>
        <mxCell id="n_CAfEEjPnqXCp9ccczC-208" style="edgeStyle=orthogonalEdgeStyle;rounded=0;orthogonalLoop=1;jettySize=auto;html=1;fontSize=17;" parent="1" edge="1">
          <mxGeometry relative="1" as="geometry">
            <mxPoint x="-99" y="930" as="sourcePoint" />
            <mxPoint x="-395" y="1010" as="targetPoint" />
          </mxGeometry>
        </mxCell>
        <mxCell id="n_CAfEEjPnqXCp9ccczC-209" style="edgeStyle=orthogonalEdgeStyle;rounded=0;orthogonalLoop=1;jettySize=auto;html=1;fontSize=17;" parent="1" edge="1">
          <mxGeometry relative="1" as="geometry">
            <mxPoint x="29" y="930" as="sourcePoint" />
            <mxPoint x="389.0000000000009" y="1010" as="targetPoint" />
          </mxGeometry>
        </mxCell>
        <mxCell id="n_CAfEEjPnqXCp9ccczC-273" style="edgeStyle=orthogonalEdgeStyle;rounded=0;orthogonalLoop=1;jettySize=auto;html=1;fontSize=17;" parent="1" source="n_CAfEEjPnqXCp9ccczC-211" target="n_CAfEEjPnqXCp9ccczC-272" edge="1">
          <mxGeometry relative="1" as="geometry">
            <Array as="points">
              <mxPoint x="-40" y="990" />
              <mxPoint x="-40" y="990" />
            </Array>
          </mxGeometry>
        </mxCell>
        <mxCell id="n_CAfEEjPnqXCp9ccczC-211" value="Armazena os dados" style="shape=parallelogram;perimeter=parallelogramPerimeter;whiteSpace=wrap;html=1;fixedSize=1;fontSize=17;" parent="1" vertex="1">
          <mxGeometry x="-98" y="890" width="148" height="80" as="geometry" />
        </mxCell>
        <mxCell id="n_CAfEEjPnqXCp9ccczC-219" value="Variáveis" style="swimlane;whiteSpace=wrap;html=1;fontSize=17;align=center;" parent="1" vertex="1">
          <mxGeometry x="1159" y="1650" width="200" height="540" as="geometry" />
        </mxCell>
        <mxCell id="n_CAfEEjPnqXCp9ccczC-220" value="cadeia marca" style="text;html=1;align=left;verticalAlign=middle;resizable=0;points=[];autosize=1;strokeColor=none;fillColor=none;fontSize=17;" parent="n_CAfEEjPnqXCp9ccczC-219" vertex="1">
          <mxGeometry x="10" y="60" width="130" height="30" as="geometry" />
        </mxCell>
        <mxCell id="n_CAfEEjPnqXCp9ccczC-221" value="real peso" style="text;html=1;align=left;verticalAlign=middle;resizable=0;points=[];autosize=1;strokeColor=none;fillColor=none;fontSize=17;" parent="n_CAfEEjPnqXCp9ccczC-219" vertex="1">
          <mxGeometry x="10" y="90" width="90" height="30" as="geometry" />
        </mxCell>
        <mxCell id="n_CAfEEjPnqXCp9ccczC-222" value="inteiro opcao" style="text;html=1;align=left;verticalAlign=middle;resizable=0;points=[];autosize=1;strokeColor=none;fillColor=none;fontSize=17;" parent="n_CAfEEjPnqXCp9ccczC-219" vertex="1">
          <mxGeometry x="10" y="30" width="120" height="30" as="geometry" />
        </mxCell>
        <mxCell id="n_CAfEEjPnqXCp9ccczC-223" value="real deli_dogP" style="text;html=1;align=left;verticalAlign=middle;resizable=0;points=[];autosize=1;strokeColor=none;fillColor=none;fontSize=17;" parent="n_CAfEEjPnqXCp9ccczC-219" vertex="1">
          <mxGeometry x="10" y="120" width="130" height="30" as="geometry" />
        </mxCell>
        <mxCell id="n_CAfEEjPnqXCp9ccczC-224" value="real deli_dogM" style="text;html=1;align=left;verticalAlign=middle;resizable=0;points=[];autosize=1;strokeColor=none;fillColor=none;fontSize=17;" parent="n_CAfEEjPnqXCp9ccczC-219" vertex="1">
          <mxGeometry x="10" y="150" width="140" height="30" as="geometry" />
        </mxCell>
        <mxCell id="n_CAfEEjPnqXCp9ccczC-225" value="real deli_dogG" style="text;html=1;align=left;verticalAlign=middle;resizable=0;points=[];autosize=1;strokeColor=none;fillColor=none;fontSize=17;" parent="n_CAfEEjPnqXCp9ccczC-219" vertex="1">
          <mxGeometry x="10" y="180" width="130" height="30" as="geometry" />
        </mxCell>
        <mxCell id="n_CAfEEjPnqXCp9ccczC-226" value="real royal_caninP" style="text;html=1;align=left;verticalAlign=middle;resizable=0;points=[];autosize=1;strokeColor=none;fillColor=none;fontSize=17;" parent="n_CAfEEjPnqXCp9ccczC-219" vertex="1">
          <mxGeometry x="10" y="240" width="150" height="30" as="geometry" />
        </mxCell>
        <mxCell id="n_CAfEEjPnqXCp9ccczC-227" value="real royal_caninM" style="text;html=1;align=left;verticalAlign=middle;resizable=0;points=[];autosize=1;strokeColor=none;fillColor=none;fontSize=17;" parent="n_CAfEEjPnqXCp9ccczC-219" vertex="1">
          <mxGeometry x="10" y="270" width="160" height="30" as="geometry" />
        </mxCell>
        <mxCell id="n_CAfEEjPnqXCp9ccczC-228" value="real royal_caninG" style="text;html=1;align=left;verticalAlign=middle;resizable=0;points=[];autosize=1;strokeColor=none;fillColor=none;fontSize=17;" parent="n_CAfEEjPnqXCp9ccczC-219" vertex="1">
          <mxGeometry x="10" y="300" width="160" height="30" as="geometry" />
        </mxCell>
        <mxCell id="n_CAfEEjPnqXCp9ccczC-229" value="real biribaP" style="text;html=1;align=left;verticalAlign=middle;resizable=0;points=[];autosize=1;strokeColor=none;fillColor=none;fontSize=17;" parent="n_CAfEEjPnqXCp9ccczC-219" vertex="1">
          <mxGeometry x="10" y="360" width="110" height="30" as="geometry" />
        </mxCell>
        <mxCell id="n_CAfEEjPnqXCp9ccczC-230" value="real biribaM" style="text;html=1;align=left;verticalAlign=middle;resizable=0;points=[];autosize=1;strokeColor=none;fillColor=none;fontSize=17;" parent="n_CAfEEjPnqXCp9ccczC-219" vertex="1">
          <mxGeometry x="10" y="390" width="110" height="30" as="geometry" />
        </mxCell>
        <mxCell id="n_CAfEEjPnqXCp9ccczC-231" value="real biribaG" style="text;html=1;align=left;verticalAlign=middle;resizable=0;points=[];autosize=1;strokeColor=none;fillColor=none;fontSize=17;" parent="n_CAfEEjPnqXCp9ccczC-219" vertex="1">
          <mxGeometry x="10" y="420" width="110" height="30" as="geometry" />
        </mxCell>
        <mxCell id="n_CAfEEjPnqXCp9ccczC-232" value="real biribaT" style="text;html=1;align=left;verticalAlign=middle;resizable=0;points=[];autosize=1;strokeColor=none;fillColor=none;fontSize=17;" parent="n_CAfEEjPnqXCp9ccczC-219" vertex="1">
          <mxGeometry x="10" y="450" width="110" height="30" as="geometry" />
        </mxCell>
        <mxCell id="n_CAfEEjPnqXCp9ccczC-233" value="real royal_caninT" style="text;html=1;align=left;verticalAlign=middle;resizable=0;points=[];autosize=1;strokeColor=none;fillColor=none;fontSize=17;" parent="n_CAfEEjPnqXCp9ccczC-219" vertex="1">
          <mxGeometry x="10" y="330" width="150" height="30" as="geometry" />
        </mxCell>
        <mxCell id="n_CAfEEjPnqXCp9ccczC-234" value="real deli_dogT" style="text;html=1;align=left;verticalAlign=middle;resizable=0;points=[];autosize=1;strokeColor=none;fillColor=none;fontSize=17;" parent="n_CAfEEjPnqXCp9ccczC-219" vertex="1">
          <mxGeometry x="10" y="210" width="130" height="30" as="geometry" />
        </mxCell>
        <mxCell id="n_CAfEEjPnqXCp9ccczC-235" value="" style="rounded=0;whiteSpace=wrap;html=1;fontSize=17;fillColor=none;" parent="1" vertex="1">
          <mxGeometry x="1400" y="1650" width="200" height="540" as="geometry" />
        </mxCell>
        <mxCell id="n_CAfEEjPnqXCp9ccczC-236" value="real whiskasF" style="text;html=1;align=left;verticalAlign=middle;resizable=0;points=[];autosize=1;strokeColor=none;fillColor=none;fontSize=17;" parent="1" vertex="1">
          <mxGeometry x="1410" y="1680" width="130" height="30" as="geometry" />
        </mxCell>
        <mxCell id="n_CAfEEjPnqXCp9ccczC-237" value="real whiskasA" style="text;html=1;align=left;verticalAlign=middle;resizable=0;points=[];autosize=1;strokeColor=none;fillColor=none;fontSize=17;" parent="1" vertex="1">
          <mxGeometry x="1410" y="1710" width="130" height="30" as="geometry" />
        </mxCell>
        <mxCell id="n_CAfEEjPnqXCp9ccczC-238" value="real whiskasC" style="text;html=1;align=left;verticalAlign=middle;resizable=0;points=[];autosize=1;strokeColor=none;fillColor=none;fontSize=17;" parent="1" vertex="1">
          <mxGeometry x="1410" y="1740" width="130" height="30" as="geometry" />
        </mxCell>
        <mxCell id="n_CAfEEjPnqXCp9ccczC-239" value="real whiskasT" style="text;html=1;align=left;verticalAlign=middle;resizable=0;points=[];autosize=1;strokeColor=none;fillColor=none;fontSize=17;" parent="1" vertex="1">
          <mxGeometry x="1410" y="1770" width="130" height="30" as="geometry" />
        </mxCell>
        <mxCell id="n_CAfEEjPnqXCp9ccczC-240" value="real friskiesF" style="text;html=1;align=left;verticalAlign=middle;resizable=0;points=[];autosize=1;strokeColor=none;fillColor=none;fontSize=17;" parent="1" vertex="1">
          <mxGeometry x="1410" y="1800" width="120" height="30" as="geometry" />
        </mxCell>
        <mxCell id="n_CAfEEjPnqXCp9ccczC-241" value="real friskiesA" style="text;html=1;align=left;verticalAlign=middle;resizable=0;points=[];autosize=1;strokeColor=none;fillColor=none;fontSize=17;" parent="1" vertex="1">
          <mxGeometry x="1410" y="1830" width="120" height="30" as="geometry" />
        </mxCell>
        <mxCell id="n_CAfEEjPnqXCp9ccczC-243" value="real friskiesC" style="text;html=1;align=left;verticalAlign=middle;resizable=0;points=[];autosize=1;strokeColor=none;fillColor=none;fontSize=17;" parent="1" vertex="1">
          <mxGeometry x="1410" y="1860" width="120" height="30" as="geometry" />
        </mxCell>
        <mxCell id="n_CAfEEjPnqXCp9ccczC-244" value="real friskiesT" style="text;html=1;align=left;verticalAlign=middle;resizable=0;points=[];autosize=1;strokeColor=none;fillColor=none;fontSize=17;" parent="1" vertex="1">
          <mxGeometry x="1410" y="1890" width="120" height="30" as="geometry" />
        </mxCell>
        <mxCell id="n_CAfEEjPnqXCp9ccczC-245" value="real premierF" style="text;html=1;align=left;verticalAlign=middle;resizable=0;points=[];autosize=1;strokeColor=none;fillColor=none;fontSize=17;" parent="1" vertex="1">
          <mxGeometry x="1410" y="1920" width="120" height="30" as="geometry" />
        </mxCell>
        <mxCell id="n_CAfEEjPnqXCp9ccczC-246" value="real premierA" style="text;html=1;align=left;verticalAlign=middle;resizable=0;points=[];autosize=1;strokeColor=none;fillColor=none;fontSize=17;" parent="1" vertex="1">
          <mxGeometry x="1410" y="1950" width="130" height="30" as="geometry" />
        </mxCell>
        <mxCell id="n_CAfEEjPnqXCp9ccczC-247" value="real premierC" style="text;html=1;align=left;verticalAlign=middle;resizable=0;points=[];autosize=1;strokeColor=none;fillColor=none;fontSize=17;" parent="1" vertex="1">
          <mxGeometry x="1410" y="1980" width="130" height="30" as="geometry" />
        </mxCell>
        <mxCell id="n_CAfEEjPnqXCp9ccczC-248" value="Legenda" style="swimlane;whiteSpace=wrap;html=1;fontSize=17;align=center;" parent="1" vertex="1">
          <mxGeometry x="920" y="1650" width="200" height="390" as="geometry" />
        </mxCell>
        <mxCell id="n_CAfEEjPnqXCp9ccczC-38" value="Impressão em Tela" style="html=1;overflow=block;blockSpacing=1;whiteSpace=wrap;fontSize=16.7;fontColor=#333333;spacing=3.8;strokeColor=#5e5e5e;strokeOpacity=100;rounded=1;absoluteArcSize=1;arcSize=9;strokeWidth=2.3;lucidId=U1cQjxkIB7t6;" parent="n_CAfEEjPnqXCp9ccczC-248" vertex="1">
          <mxGeometry x="40" y="60" width="105" height="60" as="geometry" />
        </mxCell>
        <mxCell id="n_CAfEEjPnqXCp9ccczC-39" value="Decisão" style="html=1;overflow=block;blockSpacing=1;whiteSpace=wrap;rhombus;fontSize=16.7;fontColor=#333333;spacing=3.8;strokeColor=#5e5e5e;strokeOpacity=100;rounded=1;absoluteArcSize=1;arcSize=9;strokeWidth=2.3;lucidId=-1cQubmZSOqj;" parent="n_CAfEEjPnqXCp9ccczC-248" vertex="1">
          <mxGeometry x="32.5" y="150" width="120" height="90" as="geometry" />
        </mxCell>
        <mxCell id="n_CAfEEjPnqXCp9ccczC-40" value="Ação do Código" style="html=1;overflow=block;blockSpacing=1;whiteSpace=wrap;shape=parallelogram;perimeter=parallelogramPerimeter;anchorPointDirection=0;fontSize=16.7;fontColor=#333333;spacing=3.8;strokeColor=#5e5e5e;strokeOpacity=100;rounded=1;absoluteArcSize=1;arcSize=9;strokeWidth=2.3;lucidId=h2cQz2G_vc2s;" parent="n_CAfEEjPnqXCp9ccczC-248" vertex="1">
          <mxGeometry x="25" y="270" width="120" height="90" as="geometry" />
        </mxCell>
        <mxCell id="n_CAfEEjPnqXCp9ccczC-265" value="TABELA MARCAS EM ESTOQUE:&lt;br style=&quot;border-color: var(--border-color); color: rgb(51, 51, 51);&quot;&gt;&lt;span style=&quot;color: rgb(51, 51, 51);&quot;&gt;&quot;Deli Dog&quot;&lt;/span&gt;&lt;br style=&quot;border-color: var(--border-color); color: rgb(51, 51, 51);&quot;&gt;&lt;span style=&quot;color: rgb(51, 51, 51);&quot;&gt;&quot;Royal Canin&quot;&lt;/span&gt;&lt;br style=&quot;border-color: var(--border-color); color: rgb(51, 51, 51);&quot;&gt;&lt;span style=&quot;color: rgb(51, 51, 51);&quot;&gt;&quot;Biriba&quot;&lt;/span&gt;" style="shape=parallelogram;perimeter=parallelogramPerimeter;whiteSpace=wrap;html=1;fixedSize=1;strokeColor=#000000;fontSize=17;fillColor=none;" parent="1" vertex="1">
          <mxGeometry x="-1670" y="1019" width="224" height="141" as="geometry" />
        </mxCell>
        <mxCell id="n_CAfEEjPnqXCp9ccczC-267" value="TABELA MARCAS DE RAÇÃO POR PORTE DO ANIMAL:&lt;br style=&quot;border-color: var(--border-color); color: rgb(51, 51, 51);&quot;&gt;&lt;span style=&quot;color: rgb(51, 51, 51);&quot;&gt;&quot;Animais de Porte Pequeno: &quot; (deli_dogP, royal_caninP, biribaP)&lt;/span&gt;&lt;br style=&quot;border-color: var(--border-color); color: rgb(51, 51, 51);&quot;&gt;&lt;span style=&quot;color: rgb(51, 51, 51);&quot;&gt;&quot;Animais de Porte Médio: &quot;&lt;/span&gt;&lt;br style=&quot;border-color: var(--border-color); color: rgb(51, 51, 51);&quot;&gt;&lt;span style=&quot;color: rgb(51, 51, 51);&quot;&gt;(deli_dogM,royal_caninM,biribaM)&lt;/span&gt;&lt;br style=&quot;border-color: var(--border-color); color: rgb(51, 51, 51);&quot;&gt;&lt;span style=&quot;color: rgb(51, 51, 51);&quot;&gt;&quot;Animais de Porte Grande: &quot;&lt;/span&gt;&lt;br style=&quot;border-color: var(--border-color); color: rgb(51, 51, 51);&quot;&gt;&lt;span style=&quot;color: rgb(51, 51, 51);&quot;&gt;(deli_dogG,royal_caninG,biribaG)&lt;br&gt;&lt;br&gt;&lt;/span&gt;" style="shape=parallelogram;perimeter=parallelogramPerimeter;whiteSpace=wrap;html=1;fixedSize=1;strokeColor=#000000;fontSize=17;fillColor=none;" parent="1" vertex="1">
          <mxGeometry x="-1360" y="1020" width="314" height="260" as="geometry" />
        </mxCell>
        <mxCell id="n_CAfEEjPnqXCp9ccczC-270" style="edgeStyle=orthogonalEdgeStyle;rounded=0;orthogonalLoop=1;jettySize=auto;html=1;fontSize=17;" parent="1" source="n_CAfEEjPnqXCp9ccczC-269" target="n_CAfEEjPnqXCp9ccczC-185" edge="1">
          <mxGeometry relative="1" as="geometry">
            <Array as="points">
              <mxPoint x="-787" y="1460" />
              <mxPoint x="-575" y="1460" />
            </Array>
          </mxGeometry>
        </mxCell>
        <mxCell id="n_CAfEEjPnqXCp9ccczC-269" value="TABELA QUANTIDADE DE ALIMENTOS POR PORTE DO ANIMAL&lt;br style=&quot;border-color: var(--border-color); color: rgb(51, 51, 51);&quot;&gt;&lt;span style=&quot;color: rgb(51, 51, 51);&quot;&gt;&quot;&quot;Deli Dog Pequeno Porte&quot;: deli_dogP&lt;/span&gt;&lt;br style=&quot;border-color: var(--border-color); color: rgb(51, 51, 51);&quot;&gt;&lt;span style=&quot;color: rgb(51, 51, 51);&quot;&gt;&quot;Deli Dog Médio Porte&quot;: deli_dogM&lt;/span&gt;&lt;br style=&quot;border-color: var(--border-color); color: rgb(51, 51, 51);&quot;&gt;&lt;span style=&quot;color: rgb(51, 51, 51);&quot;&gt;&quot;Deli Dog Grande Porte&quot;: deli_dogG&lt;/span&gt;&lt;br style=&quot;border-color: var(--border-color); color: rgb(51, 51, 51);&quot;&gt;&lt;span style=&quot;color: rgb(51, 51, 51);&quot;&gt;&quot;Royal Canin Pequeno Porte&quot;: royal_caninP&lt;/span&gt;&lt;br style=&quot;border-color: var(--border-color); color: rgb(51, 51, 51);&quot;&gt;&lt;span style=&quot;color: rgb(51, 51, 51);&quot;&gt;&quot;Royal Canin Médio Porte&quot;: royal_caninM&lt;/span&gt;&lt;br style=&quot;border-color: var(--border-color); color: rgb(51, 51, 51);&quot;&gt;&lt;span style=&quot;color: rgb(51, 51, 51);&quot;&gt;&quot;Royal Canin Grande Porte&quot;: royal_caninG&lt;/span&gt;&lt;br style=&quot;border-color: var(--border-color); color: rgb(51, 51, 51);&quot;&gt;&lt;span style=&quot;color: rgb(51, 51, 51);&quot;&gt;&quot;Biriba Pequeno Porte&quot;: biribaP&lt;/span&gt;&lt;br style=&quot;border-color: var(--border-color); color: rgb(51, 51, 51);&quot;&gt;&lt;span style=&quot;color: rgb(51, 51, 51);&quot;&gt;&quot;Biriba Médio Porte&quot;: biribaM&lt;/span&gt;&lt;br style=&quot;border-color: var(--border-color); color: rgb(51, 51, 51);&quot;&gt;&lt;span style=&quot;color: rgb(51, 51, 51);&quot;&gt;&quot;Biriba Grande Porte&quot;: biribaG&lt;/span&gt;" style="shape=parallelogram;perimeter=parallelogramPerimeter;whiteSpace=wrap;html=1;fixedSize=1;strokeColor=#000000;fontSize=17;fillColor=none;" parent="1" vertex="1">
          <mxGeometry x="-990" y="1020" width="407" height="290" as="geometry" />
        </mxCell>
        <mxCell id="n_CAfEEjPnqXCp9ccczC-271" value="TABELA MARCAS EM ESTOQUE:&lt;br style=&quot;border-color: var(--border-color); color: rgb(51, 51, 51);&quot;&gt;&lt;span style=&quot;color: rgb(51, 51, 51);&quot;&gt;&quot;Whiskas&quot;&lt;/span&gt;&lt;br style=&quot;border-color: var(--border-color); color: rgb(51, 51, 51);&quot;&gt;&lt;span style=&quot;color: rgb(51, 51, 51);&quot;&gt;&quot;Friskies&quot;&lt;/span&gt;&lt;br style=&quot;border-color: var(--border-color); color: rgb(51, 51, 51);&quot;&gt;&lt;span style=&quot;color: rgb(51, 51, 51);&quot;&gt;&quot;Premier&quot;&lt;/span&gt;" style="shape=parallelogram;perimeter=parallelogramPerimeter;whiteSpace=wrap;html=1;fixedSize=1;strokeColor=#000000;fontSize=17;fillColor=none;" parent="1" vertex="1">
          <mxGeometry x="-516.5" y="1010" width="230" height="130" as="geometry" />
        </mxCell>
        <mxCell id="n_CAfEEjPnqXCp9ccczC-272" value="TABELA MARCAS DE RAÇÃO POR PORTE DO ANIMAL:&lt;br style=&quot;border-color: var(--border-color); color: rgb(51, 51, 51);&quot;&gt;&lt;span style=&quot;color: rgb(51, 51, 51);&quot;&gt;&quot;Gatos Filhotes: &quot; (whiskasF, friskiesF, premierF)&lt;/span&gt;&lt;br style=&quot;border-color: var(--border-color); color: rgb(51, 51, 51);&quot;&gt;&lt;span style=&quot;color: rgb(51, 51, 51);&quot;&gt;&quot;Gatos Adultos: &quot;&lt;/span&gt;&lt;br style=&quot;border-color: var(--border-color); color: rgb(51, 51, 51);&quot;&gt;&lt;span style=&quot;color: rgb(51, 51, 51);&quot;&gt;(whiskasA,friskiesA,premierA)&lt;/span&gt;&lt;br style=&quot;border-color: var(--border-color); color: rgb(51, 51, 51);&quot;&gt;&lt;span style=&quot;color: rgb(51, 51, 51);&quot;&gt;&quot;Gatos Castrados: &quot;&lt;/span&gt;&lt;br style=&quot;border-color: var(--border-color); color: rgb(51, 51, 51);&quot;&gt;&lt;span style=&quot;color: rgb(51, 51, 51);&quot;&gt;(whiskasC,friskiesC,premierC)&lt;/span&gt;" style="shape=parallelogram;perimeter=parallelogramPerimeter;whiteSpace=wrap;html=1;fixedSize=1;strokeColor=#000000;fontSize=17;fillColor=none;" parent="1" vertex="1">
          <mxGeometry x="-250" y="1010" width="420" height="190" as="geometry" />
        </mxCell>
        <mxCell id="n_CAfEEjPnqXCp9ccczC-274" value="TABELA QUANTIDADE DE ALIMENTOS POR PORTE DO ANIMAL&lt;br style=&quot;border-color: var(--border-color); color: rgb(51, 51, 51);&quot;&gt;&lt;span style=&quot;color: rgb(51, 51, 51);&quot;&gt;&quot;&quot;Whiskas Filhotes&quot;: whiskasF&lt;/span&gt;&lt;br style=&quot;border-color: var(--border-color); color: rgb(51, 51, 51);&quot;&gt;&lt;span style=&quot;color: rgb(51, 51, 51);&quot;&gt;&quot;Whiskas Adultos&quot;: whiskasA&lt;/span&gt;&lt;br style=&quot;border-color: var(--border-color); color: rgb(51, 51, 51);&quot;&gt;&lt;span style=&quot;color: rgb(51, 51, 51);&quot;&gt;&quot;Whiskas Castrados: &quot; whiskasC&lt;/span&gt;&lt;br style=&quot;border-color: var(--border-color); color: rgb(51, 51, 51);&quot;&gt;&lt;span style=&quot;color: rgb(51, 51, 51);&quot;&gt;&quot;Friskies Filhotes: &quot; friskiesF&lt;/span&gt;&lt;br style=&quot;border-color: var(--border-color); color: rgb(51, 51, 51);&quot;&gt;&lt;span style=&quot;color: rgb(51, 51, 51);&quot;&gt;&quot;Friskies Adultos&quot;: friskiesA&lt;/span&gt;&lt;br style=&quot;border-color: var(--border-color); color: rgb(51, 51, 51);&quot;&gt;&lt;span style=&quot;color: rgb(51, 51, 51);&quot;&gt;&quot;Friskies Castrados: &quot; friskiesC&lt;/span&gt;&lt;br style=&quot;border-color: var(--border-color); color: rgb(51, 51, 51);&quot;&gt;&lt;span style=&quot;color: rgb(51, 51, 51);&quot;&gt;&quot;Premier Filhotes: &quot; premierF&lt;/span&gt;&lt;br style=&quot;border-color: var(--border-color); color: rgb(51, 51, 51);&quot;&gt;&lt;span style=&quot;color: rgb(51, 51, 51);&quot;&gt;&quot;Premier Adultos: &quot; premierA&lt;/span&gt;&lt;br style=&quot;border-color: var(--border-color); color: rgb(51, 51, 51);&quot;&gt;&lt;span style=&quot;color: rgb(51, 51, 51);&quot;&gt;&quot;Premier Castrados: &quot; premierC&lt;/span&gt;" style="shape=parallelogram;perimeter=parallelogramPerimeter;whiteSpace=wrap;html=1;fixedSize=1;strokeColor=#000000;fontSize=17;fillColor=none;" parent="1" vertex="1">
          <mxGeometry x="190" y="1010" width="396" height="260" as="geometry" />
        </mxCell>
        <mxCell id="utxzDUO19A-Ywpz3fy0E-3" style="edgeStyle=orthogonalEdgeStyle;rounded=0;orthogonalLoop=1;jettySize=auto;html=1;" parent="1" source="utxzDUO19A-Ywpz3fy0E-2" edge="1">
          <mxGeometry relative="1" as="geometry">
            <mxPoint x="-345" y="510" as="targetPoint" />
            <Array as="points">
              <mxPoint x="-345" y="510" />
            </Array>
          </mxGeometry>
        </mxCell>
        <mxCell id="utxzDUO19A-Ywpz3fy0E-2" value="&lt;div style=&quot;display: flex; justify-content: center; text-align: center; align-items: baseline; line-height: 1.25; margin-top: -2px; font-size: 17px;&quot;&gt;&lt;span style=&quot;color: rgb(51, 51, 51);&quot;&gt;friskies_F + &quot; kg de ração Friskies contabilizados com sucesso.&quot;&lt;/span&gt;&lt;/div&gt;" style="html=1;overflow=block;blockSpacing=1;whiteSpace=wrap;fontSize=13;spacing=3.8;verticalAlign=middle;strokeColor=#5e5e5e;strokeOpacity=100;rounded=1;absoluteArcSize=1;arcSize=9;strokeWidth=2.3;lucidId=E8cQUUa6jlSK;" parent="1" vertex="1">
          <mxGeometry x="-480" y="405" width="270" height="60" as="geometry" />
        </mxCell>
        <mxCell id="utxzDUO19A-Ywpz3fy0E-7" style="edgeStyle=orthogonalEdgeStyle;rounded=0;orthogonalLoop=1;jettySize=auto;html=1;" parent="1" source="utxzDUO19A-Ywpz3fy0E-5" target="n_CAfEEjPnqXCp9ccczC-137" edge="1">
          <mxGeometry relative="1" as="geometry">
            <Array as="points">
              <mxPoint x="12" y="500" />
              <mxPoint x="12" y="500" />
            </Array>
          </mxGeometry>
        </mxCell>
        <mxCell id="utxzDUO19A-Ywpz3fy0E-5" value="&lt;div style=&quot;display: flex; justify-content: center; text-align: center; align-items: baseline; line-height: 1.25; margin-top: -2px; font-size: 17px;&quot;&gt;&lt;span style=&quot;color: rgb(51, 51, 51);&quot;&gt;friskies_A + &quot; kg de ração Friskies contabilizados com sucesso.&quot;&lt;/span&gt;&lt;/div&gt;" style="html=1;overflow=block;blockSpacing=1;whiteSpace=wrap;fontSize=13;spacing=3.8;verticalAlign=middle;strokeColor=#5e5e5e;strokeOpacity=100;rounded=1;absoluteArcSize=1;arcSize=9;strokeWidth=2.3;lucidId=E8cQUUa6jlSK;" parent="1" vertex="1">
          <mxGeometry x="-123" y="405" width="270" height="60" as="geometry" />
        </mxCell>
        <mxCell id="utxzDUO19A-Ywpz3fy0E-10" style="edgeStyle=orthogonalEdgeStyle;rounded=0;orthogonalLoop=1;jettySize=auto;html=1;" parent="1" source="utxzDUO19A-Ywpz3fy0E-8" target="n_CAfEEjPnqXCp9ccczC-149" edge="1">
          <mxGeometry relative="1" as="geometry">
            <Array as="points">
              <mxPoint x="352" y="500" />
              <mxPoint x="352" y="500" />
            </Array>
          </mxGeometry>
        </mxCell>
        <mxCell id="utxzDUO19A-Ywpz3fy0E-8" value="&lt;div style=&quot;display: flex; justify-content: center; text-align: center; align-items: baseline; line-height: 1.25; margin-top: -2px; font-size: 17px;&quot;&gt;&lt;span style=&quot;color: rgb(51, 51, 51);&quot;&gt;friskies_C + &quot; kg de ração Friskies contabilizados com sucesso.&quot;&lt;/span&gt;&lt;/div&gt;" style="html=1;overflow=block;blockSpacing=1;whiteSpace=wrap;fontSize=13;spacing=3.8;verticalAlign=middle;strokeColor=#5e5e5e;strokeOpacity=100;rounded=1;absoluteArcSize=1;arcSize=9;strokeWidth=2.3;lucidId=E8cQUUa6jlSK;" parent="1" vertex="1">
          <mxGeometry x="217" y="405" width="270" height="60" as="geometry" />
        </mxCell>
        <mxCell id="utxzDUO19A-Ywpz3fy0E-14" style="edgeStyle=orthogonalEdgeStyle;rounded=0;orthogonalLoop=1;jettySize=auto;html=1;" parent="1" source="utxzDUO19A-Ywpz3fy0E-12" target="n_CAfEEjPnqXCp9ccczC-47" edge="1">
          <mxGeometry relative="1" as="geometry" />
        </mxCell>
        <mxCell id="utxzDUO19A-Ywpz3fy0E-12" value="&lt;div style=&quot;display: flex; justify-content: center; text-align: center; align-items: baseline; line-height: 1.25; margin-top: -2px; font-size: 17px;&quot;&gt;&lt;span style=&quot;color: rgb(51, 51, 51);&quot;&gt;deli_dogP + &quot; kg de ração Deli Dog contabilizados com sucesso.&quot;&lt;/span&gt;&lt;/div&gt;" style="html=1;overflow=block;blockSpacing=1;whiteSpace=wrap;fontSize=13;spacing=3.8;verticalAlign=middle;strokeColor=#5e5e5e;strokeOpacity=100;rounded=1;absoluteArcSize=1;arcSize=9;strokeWidth=2.3;lucidId=E8cQUUa6jlSK;" parent="1" vertex="1">
          <mxGeometry x="-2467" y="167.5" width="270" height="60" as="geometry" />
        </mxCell>
        <mxCell id="utxzDUO19A-Ywpz3fy0E-17" style="edgeStyle=orthogonalEdgeStyle;rounded=0;orthogonalLoop=1;jettySize=auto;html=1;entryX=0.5;entryY=0;entryDx=0;entryDy=0;" parent="1" source="utxzDUO19A-Ywpz3fy0E-15" target="n_CAfEEjPnqXCp9ccczC-49" edge="1">
          <mxGeometry relative="1" as="geometry" />
        </mxCell>
        <mxCell id="utxzDUO19A-Ywpz3fy0E-15" value="&lt;div style=&quot;display: flex; justify-content: center; text-align: center; align-items: baseline; line-height: 1.25; margin-top: -2px; font-size: 17px;&quot;&gt;&lt;span style=&quot;color: rgb(51, 51, 51);&quot;&gt;royal_caninP + &quot; kg de ração Royal Canin contabilizados com sucesso.&quot;&lt;/span&gt;&lt;/div&gt;" style="html=1;overflow=block;blockSpacing=1;whiteSpace=wrap;fontSize=13;spacing=3.8;verticalAlign=middle;strokeColor=#5e5e5e;strokeOpacity=100;rounded=1;absoluteArcSize=1;arcSize=9;strokeWidth=2.3;lucidId=E8cQUUa6jlSK;" parent="1" vertex="1">
          <mxGeometry x="-2160" y="160" width="270" height="67.5" as="geometry" />
        </mxCell>
        <mxCell id="utxzDUO19A-Ywpz3fy0E-20" style="edgeStyle=orthogonalEdgeStyle;rounded=0;orthogonalLoop=1;jettySize=auto;html=1;" parent="1" source="utxzDUO19A-Ywpz3fy0E-18" target="n_CAfEEjPnqXCp9ccczC-50" edge="1">
          <mxGeometry relative="1" as="geometry">
            <Array as="points">
              <mxPoint x="-1727" y="247" />
              <mxPoint x="-1727" y="247" />
            </Array>
          </mxGeometry>
        </mxCell>
        <mxCell id="utxzDUO19A-Ywpz3fy0E-18" value="&lt;div style=&quot;display: flex; justify-content: center; text-align: center; align-items: baseline; line-height: 1.25; margin-top: -2px; font-size: 17px;&quot;&gt;&lt;span style=&quot;color: rgb(51, 51, 51);&quot;&gt;biribaP+ &quot; kg de ração Biriba contabilizados com sucesso.&quot;&lt;/span&gt;&lt;/div&gt;" style="html=1;overflow=block;blockSpacing=1;whiteSpace=wrap;fontSize=13;spacing=3.8;verticalAlign=middle;strokeColor=#5e5e5e;strokeOpacity=100;rounded=1;absoluteArcSize=1;arcSize=9;strokeWidth=2.3;lucidId=E8cQUUa6jlSK;" parent="1" vertex="1">
          <mxGeometry x="-1862.5" y="163.75" width="270" height="60" as="geometry" />
        </mxCell>
        <mxCell id="utxzDUO19A-Ywpz3fy0E-22" style="edgeStyle=orthogonalEdgeStyle;rounded=0;orthogonalLoop=1;jettySize=auto;html=1;" parent="1" source="utxzDUO19A-Ywpz3fy0E-21" target="n_CAfEEjPnqXCp9ccczC-55" edge="1">
          <mxGeometry relative="1" as="geometry">
            <Array as="points">
              <mxPoint x="-1447" y="250" />
              <mxPoint x="-1447" y="250" />
            </Array>
          </mxGeometry>
        </mxCell>
        <mxCell id="utxzDUO19A-Ywpz3fy0E-21" value="&lt;div style=&quot;display: flex; justify-content: center; text-align: center; align-items: baseline; line-height: 1.25; margin-top: -2px; font-size: 17px;&quot;&gt;&lt;span style=&quot;color: rgb(51, 51, 51);&quot;&gt;deli_dogM + &quot; kg de ração Deli Dog contabilizados com sucesso.&quot;&lt;/span&gt;&lt;/div&gt;" style="html=1;overflow=block;blockSpacing=1;whiteSpace=wrap;fontSize=13;spacing=3.8;verticalAlign=middle;strokeColor=#5e5e5e;strokeOpacity=100;rounded=1;absoluteArcSize=1;arcSize=9;strokeWidth=2.3;lucidId=E8cQUUa6jlSK;" parent="1" vertex="1">
          <mxGeometry x="-1573" y="163.75" width="253" height="66.25" as="geometry" />
        </mxCell>
        <mxCell id="utxzDUO19A-Ywpz3fy0E-25" style="edgeStyle=orthogonalEdgeStyle;rounded=0;orthogonalLoop=1;jettySize=auto;html=1;entryX=0.519;entryY=0.003;entryDx=0;entryDy=0;entryPerimeter=0;" parent="1" source="utxzDUO19A-Ywpz3fy0E-23" target="n_CAfEEjPnqXCp9ccczC-58" edge="1">
          <mxGeometry relative="1" as="geometry">
            <Array as="points" />
          </mxGeometry>
        </mxCell>
        <mxCell id="utxzDUO19A-Ywpz3fy0E-23" value="&lt;div style=&quot;display: flex; justify-content: center; text-align: center; align-items: baseline; line-height: 1.25; margin-top: -2px; font-size: 17px;&quot;&gt;&lt;span style=&quot;color: rgb(51, 51, 51);&quot;&gt;royal_caninM+ &quot; kg de ração Royal Canin contabilizados com sucesso.&quot;&lt;/span&gt;&lt;/div&gt;" style="html=1;overflow=block;blockSpacing=1;whiteSpace=wrap;fontSize=13;spacing=3.8;verticalAlign=middle;strokeColor=#5e5e5e;strokeOpacity=100;rounded=1;absoluteArcSize=1;arcSize=9;strokeWidth=2.3;lucidId=E8cQUUa6jlSK;" parent="1" vertex="1">
          <mxGeometry x="-1269.5" y="163.75" width="253" height="66.25" as="geometry" />
        </mxCell>
        <mxCell id="utxzDUO19A-Ywpz3fy0E-28" style="edgeStyle=orthogonalEdgeStyle;rounded=0;orthogonalLoop=1;jettySize=auto;html=1;entryX=0.539;entryY=-0.001;entryDx=0;entryDy=0;entryPerimeter=0;" parent="1" source="utxzDUO19A-Ywpz3fy0E-26" target="n_CAfEEjPnqXCp9ccczC-62" edge="1">
          <mxGeometry relative="1" as="geometry">
            <Array as="points">
              <mxPoint x="-840" y="262" />
            </Array>
          </mxGeometry>
        </mxCell>
        <mxCell id="utxzDUO19A-Ywpz3fy0E-26" value="&lt;div style=&quot;display: flex; justify-content: center; text-align: center; align-items: baseline; line-height: 1.25; margin-top: -2px; font-size: 17px;&quot;&gt;&lt;span style=&quot;color: rgb(51, 51, 51);&quot;&gt;biribaM+ &quot; kg de ração Biriba contabilizados com sucesso.&quot;&lt;/span&gt;&lt;/div&gt;" style="html=1;overflow=block;blockSpacing=1;whiteSpace=wrap;fontSize=13;spacing=3.8;verticalAlign=middle;strokeColor=#5e5e5e;strokeOpacity=100;rounded=1;absoluteArcSize=1;arcSize=9;strokeWidth=2.3;lucidId=E8cQUUa6jlSK;" parent="1" vertex="1">
          <mxGeometry x="-970" y="163.75" width="253" height="66.25" as="geometry" />
        </mxCell>
        <mxCell id="utxzDUO19A-Ywpz3fy0E-31" style="edgeStyle=orthogonalEdgeStyle;rounded=0;orthogonalLoop=1;jettySize=auto;html=1;" parent="1" source="utxzDUO19A-Ywpz3fy0E-29" target="n_CAfEEjPnqXCp9ccczC-98" edge="1">
          <mxGeometry relative="1" as="geometry">
            <Array as="points">
              <mxPoint x="-2319" y="750" />
              <mxPoint x="-2319" y="750" />
            </Array>
          </mxGeometry>
        </mxCell>
        <mxCell id="utxzDUO19A-Ywpz3fy0E-29" value="&lt;div style=&quot;display: flex; justify-content: center; text-align: center; align-items: baseline; line-height: 1.25; margin-top: -2px; font-size: 17px;&quot;&gt;&lt;span style=&quot;color: rgb(51, 51, 51);&quot;&gt;deli_dogG + &quot; kg de ração Deli Dog contabilizados com sucesso.&quot;&lt;/span&gt;&lt;/div&gt;" style="html=1;overflow=block;blockSpacing=1;whiteSpace=wrap;fontSize=13;spacing=3.8;verticalAlign=middle;strokeColor=#5e5e5e;strokeOpacity=100;rounded=1;absoluteArcSize=1;arcSize=9;strokeWidth=2.3;lucidId=E8cQUUa6jlSK;" parent="1" vertex="1">
          <mxGeometry x="-2454" y="654" width="270" height="60" as="geometry" />
        </mxCell>
        <mxCell id="utxzDUO19A-Ywpz3fy0E-34" style="edgeStyle=orthogonalEdgeStyle;rounded=0;orthogonalLoop=1;jettySize=auto;html=1;" parent="1" source="utxzDUO19A-Ywpz3fy0E-32" edge="1">
          <mxGeometry relative="1" as="geometry">
            <mxPoint x="-2025" y="760" as="targetPoint" />
            <Array as="points">
              <mxPoint x="-2025" y="760" />
            </Array>
          </mxGeometry>
        </mxCell>
        <mxCell id="utxzDUO19A-Ywpz3fy0E-32" value="&lt;div style=&quot;display: flex; justify-content: center; text-align: center; align-items: baseline; line-height: 1.25; margin-top: -2px; font-size: 17px;&quot;&gt;&lt;span style=&quot;color: rgb(51, 51, 51);&quot;&gt;royal_caninG + &quot; kg de ração Royal Canin contabilizados com sucesso.&quot;&lt;/span&gt;&lt;/div&gt;" style="html=1;overflow=block;blockSpacing=1;whiteSpace=wrap;fontSize=13;spacing=3.8;verticalAlign=middle;strokeColor=#5e5e5e;strokeOpacity=100;rounded=1;absoluteArcSize=1;arcSize=9;strokeWidth=2.3;lucidId=E8cQUUa6jlSK;" parent="1" vertex="1">
          <mxGeometry x="-2160" y="654" width="270" height="60" as="geometry" />
        </mxCell>
        <mxCell id="utxzDUO19A-Ywpz3fy0E-38" style="edgeStyle=orthogonalEdgeStyle;rounded=0;orthogonalLoop=1;jettySize=auto;html=1;" parent="1" source="utxzDUO19A-Ywpz3fy0E-35" target="n_CAfEEjPnqXCp9ccczC-104" edge="1">
          <mxGeometry relative="1" as="geometry">
            <Array as="points">
              <mxPoint x="-1719" y="750" />
              <mxPoint x="-1719" y="750" />
            </Array>
          </mxGeometry>
        </mxCell>
        <mxCell id="utxzDUO19A-Ywpz3fy0E-35" value="&lt;div style=&quot;display: flex; justify-content: center; text-align: center; align-items: baseline; line-height: 1.25; margin-top: -2px; font-size: 17px;&quot;&gt;&lt;span style=&quot;color: rgb(51, 51, 51);&quot;&gt;biribaG+ &quot; kg de ração Biriba contabilizados com sucesso.&quot;&lt;/span&gt;&lt;/div&gt;" style="html=1;overflow=block;blockSpacing=1;whiteSpace=wrap;fontSize=13;spacing=3.8;verticalAlign=middle;strokeColor=#5e5e5e;strokeOpacity=100;rounded=1;absoluteArcSize=1;arcSize=9;strokeWidth=2.3;lucidId=E8cQUUa6jlSK;" parent="1" vertex="1">
          <mxGeometry x="-1854" y="654" width="270" height="60" as="geometry" />
        </mxCell>
        <mxCell id="mm4QMuO7m49nY0iOttvm-3" style="edgeStyle=orthogonalEdgeStyle;rounded=0;orthogonalLoop=1;jettySize=auto;html=1;" edge="1" parent="1" source="mm4QMuO7m49nY0iOttvm-1" target="n_CAfEEjPnqXCp9ccczC-11">
          <mxGeometry relative="1" as="geometry" />
        </mxCell>
        <mxCell id="mm4QMuO7m49nY0iOttvm-8" value="&lt;font style=&quot;font-size: 13px;&quot;&gt;&lt;b&gt;2&lt;/b&gt;&lt;/font&gt;" style="edgeLabel;html=1;align=center;verticalAlign=middle;resizable=0;points=[];" vertex="1" connectable="0" parent="mm4QMuO7m49nY0iOttvm-3">
          <mxGeometry x="-0.7974" y="2" relative="1" as="geometry">
            <mxPoint as="offset" />
          </mxGeometry>
        </mxCell>
        <mxCell id="mm4QMuO7m49nY0iOttvm-4" style="edgeStyle=orthogonalEdgeStyle;rounded=0;orthogonalLoop=1;jettySize=auto;html=1;" edge="1" parent="1" source="mm4QMuO7m49nY0iOttvm-1" target="n_CAfEEjPnqXCp9ccczC-2">
          <mxGeometry relative="1" as="geometry" />
        </mxCell>
        <mxCell id="mm4QMuO7m49nY0iOttvm-7" value="&lt;font style=&quot;font-size: 13px;&quot;&gt;&lt;span style=&quot;font-size: 13px;&quot;&gt;1&lt;/span&gt;&lt;/font&gt;" style="edgeLabel;html=1;align=center;verticalAlign=middle;resizable=0;points=[];fontSize=13;fontStyle=1" vertex="1" connectable="0" parent="mm4QMuO7m49nY0iOttvm-4">
          <mxGeometry x="-0.6449" y="-1" relative="1" as="geometry">
            <mxPoint x="70" y="1" as="offset" />
          </mxGeometry>
        </mxCell>
        <mxCell id="mm4QMuO7m49nY0iOttvm-1" value="1 ou 2" style="html=1;overflow=block;blockSpacing=1;whiteSpace=wrap;rhombus;fontSize=16.7;fontColor=#333333;spacing=3.8;strokeColor=#5e5e5e;strokeOpacity=100;rounded=1;absoluteArcSize=1;arcSize=9;strokeWidth=2.3;lucidId=nUcQ-_NO7yt8;" vertex="1" parent="1">
          <mxGeometry x="160" y="-770" width="210" height="190" as="geometry" />
        </mxCell>
        <mxCell id="mm4QMuO7m49nY0iOttvm-10" value="" style="html=1;jettySize=18;whiteSpace=wrap;overflow=block;blockSpacing=1;fontSize=13;strokeColor=#5E5E5E;strokeWidth=1.5;rounded=1;arcSize=12;edgeStyle=orthogonalEdgeStyle;startArrow=none;endArrow=block;endFill=1;exitX=0.5;exitY=1.007;exitPerimeter=0;entryX=0.5;entryY=-0.009;entryPerimeter=0;lucidId=eWcQqhkcvZtA;" edge="1" parent="1" source="n_CAfEEjPnqXCp9ccczC-2" target="mm4QMuO7m49nY0iOttvm-9">
          <mxGeometry width="100" height="100" relative="1" as="geometry">
            <Array as="points" />
            <mxPoint x="-525" y="-409" as="sourcePoint" />
            <mxPoint x="-325" y="-335" as="targetPoint" />
          </mxGeometry>
        </mxCell>
        <mxCell id="mm4QMuO7m49nY0iOttvm-11" style="edgeStyle=orthogonalEdgeStyle;rounded=0;orthogonalLoop=1;jettySize=auto;html=1;entryX=0.5;entryY=0;entryDx=0;entryDy=0;" edge="1" parent="1" source="mm4QMuO7m49nY0iOttvm-9" target="n_CAfEEjPnqXCp9ccczC-3">
          <mxGeometry relative="1" as="geometry" />
        </mxCell>
        <mxCell id="mm4QMuO7m49nY0iOttvm-14" value="&lt;font style=&quot;font-size: 13px;&quot;&gt;&lt;b&gt;1&lt;/b&gt;&lt;/font&gt;" style="edgeLabel;html=1;align=center;verticalAlign=middle;resizable=0;points=[];" vertex="1" connectable="0" parent="mm4QMuO7m49nY0iOttvm-11">
          <mxGeometry x="-0.7509" relative="1" as="geometry">
            <mxPoint as="offset" />
          </mxGeometry>
        </mxCell>
        <mxCell id="mm4QMuO7m49nY0iOttvm-13" style="edgeStyle=orthogonalEdgeStyle;rounded=0;orthogonalLoop=1;jettySize=auto;html=1;exitX=1;exitY=0.5;exitDx=0;exitDy=0;entryX=0.5;entryY=0;entryDx=0;entryDy=0;" edge="1" parent="1" source="mm4QMuO7m49nY0iOttvm-9" target="n_CAfEEjPnqXCp9ccczC-4">
          <mxGeometry relative="1" as="geometry" />
        </mxCell>
        <mxCell id="mm4QMuO7m49nY0iOttvm-15" value="&lt;font style=&quot;font-size: 13px;&quot;&gt;&lt;b&gt;2&lt;/b&gt;&lt;/font&gt;" style="edgeLabel;html=1;align=center;verticalAlign=middle;resizable=0;points=[];" vertex="1" connectable="0" parent="mm4QMuO7m49nY0iOttvm-13">
          <mxGeometry x="-0.622" y="-1" relative="1" as="geometry">
            <mxPoint x="-11" y="-1" as="offset" />
          </mxGeometry>
        </mxCell>
        <mxCell id="mm4QMuO7m49nY0iOttvm-9" value="1 ou 2" style="html=1;overflow=block;blockSpacing=1;whiteSpace=wrap;rhombus;fontSize=16.7;fontColor=#333333;spacing=3.8;strokeColor=#5e5e5e;strokeOpacity=100;rounded=1;absoluteArcSize=1;arcSize=9;strokeWidth=2.3;lucidId=nUcQ-_NO7yt8;" vertex="1" parent="1">
          <mxGeometry x="-556" y="-390" width="61" height="65" as="geometry" />
        </mxCell>
      </root>
    </mxGraphModel>
  </diagram>
</mxfile>
